<svg width="400" height="82" viewBox="0 0 400 82" fill="none" xmlns="http://www.w3.org/2000/svg">
<rect y="0.844543" width="400" height="80.3109" rx="30" fill="url(#paint0_linear_1207_45)"/>
<path d="M24.4771 61V55.5171L44.9058 27.9355V27.7686H24.9502V20.8384H54.9253V26.2935L34.5801 53.9028V54.0698H55.4819V61H24.4771ZM73.7397 61.6123C70.7153 61.6123 68.0991 60.9907 65.8911 59.7476C63.6831 58.5044 61.9761 56.7231 60.77 54.4038C59.564 52.0845 58.9609 49.3105 58.9609 46.082V46.0264C58.9609 42.8164 59.5732 40.061 60.7979 37.7603C62.0225 35.4409 63.7388 33.6597 65.9468 32.4165C68.1548 31.1733 70.7432 30.5518 73.7119 30.5518C76.6992 30.5518 79.2969 31.1733 81.5049 32.4165C83.7314 33.6411 85.457 35.4131 86.6816 37.7324C87.9062 40.0332 88.5186 42.7979 88.5186 46.0264V46.082C88.5186 49.3291 87.9062 52.1123 86.6816 54.4316C85.4756 56.751 83.7686 58.5322 81.5605 59.7754C79.3525 61 76.7456 61.6123 73.7397 61.6123ZM73.7676 55.2388C75.085 55.2388 76.2261 54.8862 77.1909 54.1812C78.1743 53.4575 78.9258 52.4185 79.4453 51.064C79.9834 49.6909 80.2524 48.0303 80.2524 46.082V46.0264C80.2524 44.0967 79.9834 42.4546 79.4453 41.1001C78.9072 39.7456 78.1465 38.7158 77.1631 38.0107C76.1797 37.2871 75.0293 36.9253 73.7119 36.9253C72.4131 36.9253 71.272 37.2871 70.2886 38.0107C69.3237 38.7158 68.5723 39.7456 68.0342 41.1001C67.4961 42.4546 67.2271 44.0967 67.2271 46.0264V46.082C67.2271 48.0303 67.4868 49.6909 68.0063 51.064C68.5444 52.4185 69.3052 53.4575 70.2886 54.1812C71.272 54.8862 72.4316 55.2388 73.7676 55.2388ZM106.303 61.6123C103.26 61.6123 100.644 60.9907 98.4546 59.7476C96.2651 58.4858 94.5767 56.6953 93.3892 54.376C92.2202 52.0566 91.6357 49.3105 91.6357 46.1377V46.1099C91.6357 42.937 92.2202 40.1909 93.3892 37.8716C94.5767 35.5337 96.2373 33.7339 98.3711 32.4722C100.523 31.1919 103.056 30.5518 105.969 30.5518C108.882 30.5518 111.396 31.1733 113.512 32.4165C115.646 33.6411 117.288 35.376 118.438 37.6211C119.607 39.8662 120.191 42.4917 120.191 45.4976V48.0024H95.6157V42.8813H116.351L112.482 47.6685V44.5513C112.482 42.8071 112.213 41.3506 111.675 40.1816C111.137 38.9941 110.385 38.1035 109.42 37.5098C108.474 36.916 107.37 36.6191 106.108 36.6191C104.847 36.6191 103.724 36.9253 102.741 37.5376C101.776 38.1499 101.015 39.0498 100.458 40.2373C99.9204 41.4062 99.6514 42.8442 99.6514 44.5513V47.6963C99.6514 49.3477 99.9204 50.7578 100.458 51.9268C101.015 53.0957 101.804 53.9956 102.824 54.6265C103.845 55.2388 105.06 55.5449 106.47 55.5449C107.583 55.5449 108.548 55.3687 109.365 55.0161C110.181 54.6636 110.849 54.2183 111.369 53.6802C111.888 53.1421 112.241 52.5947 112.426 52.0381L112.482 51.8711H119.941L119.857 52.1772C119.635 53.272 119.199 54.376 118.549 55.4893C117.9 56.6025 117.019 57.623 115.905 58.5508C114.811 59.4785 113.465 60.2207 111.87 60.7773C110.292 61.334 108.437 61.6123 106.303 61.6123ZM145.992 61V27.7686H134.386V20.8384H166.031V27.7686H154.397V61H145.992ZM177.052 61.6123C174.009 61.6123 171.393 60.9907 169.204 59.7476C167.014 58.4858 165.326 56.6953 164.138 54.376C162.969 52.0566 162.385 49.3105 162.385 46.1377V46.1099C162.385 42.937 162.969 40.1909 164.138 37.8716C165.326 35.5337 166.986 33.7339 169.12 32.4722C171.272 31.1919 173.805 30.5518 176.718 30.5518C179.631 30.5518 182.146 31.1733 184.261 32.4165C186.395 33.6411 188.037 35.376 189.187 37.6211C190.356 39.8662 190.94 42.4917 190.94 45.4976V48.0024H166.365V42.8813H187.1L183.231 47.6685V44.5513C183.231 42.8071 182.962 41.3506 182.424 40.1816C181.886 38.9941 181.134 38.1035 180.169 37.5098C179.223 36.916 178.119 36.6191 176.857 36.6191C175.596 36.6191 174.473 36.9253 173.49 37.5376C172.525 38.1499 171.764 39.0498 171.208 40.2373C170.669 41.4062 170.4 42.8442 170.4 44.5513V47.6963C170.4 49.3477 170.669 50.7578 171.208 51.9268C171.764 53.0957 172.553 53.9956 173.573 54.6265C174.594 55.2388 175.809 55.5449 177.219 55.5449C178.333 55.5449 179.297 55.3687 180.114 55.0161C180.93 54.6636 181.598 54.2183 182.118 53.6802C182.637 53.1421 182.99 52.5947 183.175 52.0381L183.231 51.8711H190.69L190.606 52.1772C190.384 53.272 189.948 54.376 189.298 55.4893C188.649 56.6025 187.768 57.623 186.654 58.5508C185.56 59.4785 184.214 60.2207 182.619 60.7773C181.042 61.334 179.186 61.6123 177.052 61.6123ZM208.781 61.6123C205.756 61.6123 203.14 60.9814 200.932 59.7197C198.724 58.458 197.026 56.6675 195.839 54.3481C194.651 52.0103 194.058 49.2456 194.058 46.0542V46.0264C194.058 42.835 194.651 40.0889 195.839 37.7881C197.045 35.4688 198.743 33.6875 200.932 32.4443C203.14 31.1826 205.729 30.5518 208.697 30.5518C211.406 30.5518 213.753 31.062 215.739 32.0825C217.724 33.0845 219.273 34.4482 220.387 36.1738C221.519 37.8994 222.14 39.8384 222.251 41.9907V42.1855H214.709L214.653 41.9351C214.412 40.5063 213.8 39.3188 212.816 38.3726C211.833 37.4077 210.497 36.9253 208.809 36.9253C207.491 36.9253 206.341 37.2964 205.357 38.0386C204.393 38.7622 203.641 39.8105 203.103 41.1836C202.583 42.5381 202.324 44.1616 202.324 46.0542V46.082C202.324 48.0303 202.583 49.6909 203.103 51.064C203.641 52.4185 204.393 53.4575 205.357 54.1812C206.341 54.8862 207.5 55.2388 208.836 55.2388C210.469 55.2388 211.777 54.7842 212.761 53.875C213.763 52.9473 214.403 51.7319 214.681 50.229L214.709 49.9785H222.279V50.1455C222.149 52.3164 221.519 54.2646 220.387 55.9902C219.255 57.7158 217.696 59.0889 215.711 60.1094C213.744 61.1113 211.434 61.6123 208.781 61.6123ZM226.398 61V20.8384H234.525V36.313H234.692C235.472 34.4575 236.631 33.0381 238.171 32.0547C239.73 31.0527 241.623 30.5518 243.849 30.5518C246.02 30.5518 247.885 31.0342 249.443 31.999C251.002 32.9453 252.199 34.2905 253.034 36.0347C253.887 37.7788 254.314 39.8569 254.314 42.269V61H246.187V43.939C246.187 41.8608 245.686 40.2373 244.684 39.0684C243.701 37.8809 242.281 37.2871 240.426 37.2871C239.238 37.2871 238.199 37.5747 237.309 38.1499C236.437 38.7065 235.75 39.4858 235.249 40.4878C234.767 41.4712 234.525 42.6123 234.525 43.9111V61H226.398ZM271.542 61V20.8384H279.947V37.1479H298.038V20.8384H306.443V61H298.038V44.0781H279.947V61H271.542ZM322.586 61.6123C320.396 61.6123 318.532 61.167 316.992 60.2764C315.47 59.3672 314.301 58.0776 313.485 56.4077C312.687 54.7378 312.288 52.7432 312.288 50.4238V31.1641H320.415V48.7261C320.415 50.6743 320.87 52.1865 321.779 53.2627C322.707 54.3389 324.08 54.877 325.898 54.877C326.807 54.877 327.624 54.7192 328.347 54.4038C329.089 54.0884 329.72 53.6431 330.24 53.0679C330.759 52.4741 331.158 51.7783 331.437 50.9805C331.715 50.1641 331.854 49.2734 331.854 48.3086V31.1641H339.981V61H331.854V56.0737H331.687C331.167 57.2056 330.481 58.189 329.627 59.0239C328.792 59.8589 327.781 60.499 326.594 60.9443C325.425 61.3896 324.089 61.6123 322.586 61.6123ZM362.942 61.6123C361.514 61.6123 360.206 61.3804 359.018 60.9165C357.831 60.4526 356.792 59.8032 355.901 58.9683C355.01 58.1147 354.296 57.0942 353.758 55.9067H353.591V61H345.464V20.8384H353.591V36.3408H353.758C354.314 35.1348 355.038 34.105 355.929 33.2515C356.819 32.3794 357.858 31.7114 359.046 31.2476C360.252 30.7837 361.56 30.5518 362.97 30.5518C365.475 30.5518 367.627 31.1733 369.427 32.4165C371.246 33.6411 372.646 35.4131 373.63 37.7324C374.613 40.0332 375.105 42.8071 375.105 46.0542V46.082C375.105 49.3105 374.613 52.0845 373.63 54.4038C372.646 56.7231 371.246 58.5044 369.427 59.7476C367.609 60.9907 365.447 61.6123 362.942 61.6123ZM360.243 54.877C361.597 54.877 362.766 54.5244 363.75 53.8193C364.733 53.0957 365.494 52.0752 366.032 50.7578C366.57 49.4404 366.839 47.8818 366.839 46.082V46.0542C366.839 44.2358 366.57 42.6772 366.032 41.3784C365.494 40.061 364.724 39.0498 363.722 38.3447C362.738 37.6396 361.579 37.2871 360.243 37.2871C358.925 37.2871 357.766 37.6489 356.764 38.3726C355.78 39.0776 355.001 40.0889 354.426 41.4062C353.869 42.7051 353.591 44.2544 353.591 46.0542V46.082C353.591 47.8818 353.869 49.4404 354.426 50.7578C354.982 52.0752 355.762 53.0957 356.764 53.8193C357.766 54.5244 358.925 54.877 360.243 54.877Z" fill="white"/>
<defs>
<linearGradient id="paint0_linear_1207_45" x1="0" y1="81.1554" x2="400.032" y2="7.88973" gradientUnits="userSpaceOnUse">
<stop stop-color="#081D28"/>
<stop offset="0.199203" stop-color="#082331"/>
<stop offset="0.521094" stop-color="#083E58"/>
<stop offset="0.748552" stop-color="#063651"/>
<stop offset="0.997361" stop-color="#072D42"/>
</linearGradient>
</defs>
</svg>
