<svg width="300" height="74" viewBox="0 0 300 74" fill="none" xmlns="http://www.w3.org/2000/svg">
<path d="M31.8502 53.4507H9.4591V49.3141L23.8857 28.6312H9.85013V23.3627H31.4591V27.4787L17.0531 48.1822H31.8502V53.4507ZM57.0607 41.9053C57.0607 43.8261 56.8 45.5274 56.2787 47.0091C55.771 48.4909 55.0233 49.7463 54.0354 50.7753C53.0613 51.7906 51.8814 52.5589 50.4957 53.0802C49.1237 53.6016 47.5733 53.8623 45.8446 53.8623C44.2256 53.8623 42.737 53.6016 41.3787 53.0802C40.0342 52.5589 38.8611 51.7906 37.8595 50.7753C36.8717 49.7463 36.1034 48.4909 35.5546 47.0091C35.0195 45.5274 34.752 43.8261 34.752 41.9053C34.752 39.3534 35.2047 37.1925 36.1102 35.4226C37.0158 33.6527 38.3054 32.3081 39.9793 31.3889C41.6531 30.4697 43.6494 30.01 45.9681 30.01C48.1221 30.01 50.0292 30.4697 51.6893 31.3889C53.3632 32.3081 54.6734 33.6527 55.6201 35.4226C56.5805 37.1925 57.0607 39.3534 57.0607 41.9053ZM41.1523 41.9053C41.1523 43.4145 41.317 44.6836 41.6463 45.7126C41.9755 46.7416 42.49 47.5168 43.1898 48.0381C43.8895 48.5595 44.8019 48.8202 45.9269 48.8202C47.0382 48.8202 47.9369 48.5595 48.6229 48.0381C49.3226 47.5168 49.8303 46.7416 50.1458 45.7126C50.4751 44.6836 50.6397 43.4145 50.6397 41.9053C50.6397 40.3824 50.4751 39.1201 50.1458 38.1186C49.8303 37.1033 49.3226 36.3418 48.6229 35.8342C47.9232 35.3265 47.0108 35.0727 45.8857 35.0727C44.2256 35.0727 43.0183 35.6421 42.2637 36.7809C41.5228 37.9196 41.1523 39.6278 41.1523 41.9053ZM71.7343 30.01C73.8609 30.01 75.6925 30.4216 77.2291 31.2448C78.7658 32.0543 79.9525 33.2342 80.7895 34.7846C81.6264 36.335 82.0448 38.2283 82.0448 40.4647V43.5105H67.2067C67.2753 45.2804 67.8035 46.673 68.7913 47.6883C69.7929 48.6898 71.1786 49.1906 72.9485 49.1906C74.4165 49.1906 75.7611 49.0397 76.9822 48.7379C78.2032 48.436 79.4586 47.9833 80.7483 47.3796V52.2365C79.6095 52.799 78.4159 53.2106 77.1674 53.4713C75.9326 53.7319 74.4302 53.8623 72.6604 53.8623C70.3554 53.8623 68.3111 53.437 66.5275 52.5863C64.7576 51.7357 63.365 50.4391 62.3498 48.6967C61.3482 46.9543 60.8474 44.7591 60.8474 42.1111C60.8474 39.422 61.3002 37.1856 62.2057 35.402C63.1249 33.6047 64.4009 32.2601 66.0336 31.3683C67.6663 30.4628 69.5665 30.01 71.7343 30.01ZM71.7754 34.4759C70.5543 34.4759 69.5391 34.8669 68.7296 35.649C67.9338 36.431 67.4742 37.6589 67.3507 39.3328H76.159C76.1452 38.3998 75.9737 37.5698 75.6445 36.8426C75.3289 36.1154 74.8487 35.5392 74.2039 35.1139C73.5727 34.6886 72.7633 34.4759 71.7754 34.4759ZM110.198 53.4507H103.819V28.6723H95.6482V23.3627H118.369V28.6723H110.198V53.4507ZM131.993 30.01C134.119 30.01 135.951 30.4216 137.487 31.2448C139.024 32.0543 140.211 33.2342 141.048 34.7846C141.885 36.335 142.303 38.2283 142.303 40.4647V43.5105H127.465C127.534 45.2804 128.062 46.673 129.05 47.6883C130.051 48.6898 131.437 49.1906 133.207 49.1906C134.675 49.1906 136.019 49.0397 137.24 48.7379C138.462 48.436 139.717 47.9833 141.007 47.3796V52.2365C139.868 52.799 138.674 53.2106 137.426 53.4713C136.191 53.7319 134.689 53.8623 132.919 53.8623C130.614 53.8623 128.569 53.437 126.786 52.5863C125.016 51.7357 123.623 50.4391 122.608 48.6967C121.607 46.9543 121.106 44.7591 121.106 42.1111C121.106 39.422 121.558 37.1856 122.464 35.402C123.383 33.6047 124.659 32.2601 126.292 31.3683C127.925 30.4628 129.825 30.01 131.993 30.01ZM132.034 34.4759C130.813 34.4759 129.797 34.8669 128.988 35.649C128.192 36.431 127.733 37.6589 127.609 39.3328H136.417C136.404 38.3998 136.232 37.5698 135.903 36.8426C135.587 36.1154 135.107 35.5392 134.462 35.1139C133.831 34.6886 133.022 34.4759 132.034 34.4759ZM156.75 53.8623C154.473 53.8623 152.531 53.4507 150.926 52.6275C149.321 51.7906 148.1 50.5009 147.263 48.7584C146.426 47.016 146.008 44.7865 146.008 42.0699C146.008 39.2573 146.481 36.9661 147.428 35.1962C148.388 33.4126 149.712 32.1023 151.4 31.2654C153.101 30.4285 155.07 30.01 157.306 30.01C158.898 30.01 160.27 30.1678 161.422 30.4834C162.588 30.7852 163.603 31.1488 164.468 31.5741L162.616 36.431C161.628 36.0331 160.709 35.7107 159.858 35.4637C159.007 35.2031 158.157 35.0727 157.306 35.0727C156.208 35.0727 155.296 35.3334 154.569 35.8548C153.842 36.3624 153.3 37.1307 152.943 38.1597C152.586 39.1887 152.408 40.4784 152.408 42.0288C152.408 43.5517 152.6 44.8139 152.984 45.8155C153.368 46.8171 153.924 47.5648 154.651 48.0587C155.378 48.5389 156.263 48.779 157.306 48.779C158.609 48.779 159.769 48.6075 160.784 48.2645C161.799 47.9078 162.787 47.4139 163.748 46.7828V52.1541C162.787 52.7578 161.779 53.19 160.722 53.4507C159.68 53.7251 158.356 53.8623 156.75 53.8623ZM175.375 21.4282V27.952C175.375 29.0908 175.334 30.1747 175.252 31.2037C175.183 32.2327 175.128 32.9598 175.087 33.3852H175.416C175.91 32.5894 176.493 31.9446 177.166 31.4506C177.852 30.9567 178.606 30.5931 179.43 30.3599C180.253 30.1267 181.138 30.01 182.084 30.01C183.744 30.01 185.192 30.305 186.427 30.895C187.662 31.4712 188.622 32.3836 189.308 33.6321C189.994 34.8669 190.337 36.4722 190.337 38.4478V53.4507H184.06V40.0119C184.06 38.3655 183.758 37.1239 183.155 36.2869C182.551 35.45 181.618 35.0316 180.356 35.0316C179.093 35.0316 178.099 35.3265 177.372 35.9165C176.644 36.4927 176.13 37.3502 175.828 38.489C175.526 39.614 175.375 40.9929 175.375 42.6256V53.4507H169.098V21.4282H175.375ZM232.896 53.4507H226.537V40.4647H214.621V53.4507H208.242V23.3627H214.621V35.155H226.537V23.3627H232.896V53.4507ZM261.132 30.4422V53.4507H256.316L255.473 50.5077H255.143C254.65 51.2898 254.032 51.9278 253.291 52.4217C252.55 52.9156 251.734 53.2792 250.842 53.5124C249.95 53.7457 249.024 53.8623 248.064 53.8623C246.417 53.8623 244.984 53.5742 243.763 52.9979C242.542 52.408 241.588 51.4956 240.902 50.2608C240.23 49.026 239.894 47.4207 239.894 45.4451V30.4422H246.171V43.881C246.171 45.5274 246.466 46.769 247.055 47.606C247.645 48.4429 248.585 48.8613 249.875 48.8613C251.151 48.8613 252.152 48.5732 252.88 47.997C253.607 47.407 254.114 46.5495 254.403 45.4245C254.704 44.2857 254.855 42.9 254.855 41.2673V30.4422H261.132ZM273.995 21.4282V28.8781C273.995 29.7425 273.967 30.6 273.912 31.4506C273.871 32.3013 273.816 32.9598 273.748 33.4263H273.995C274.598 32.4796 275.422 31.677 276.464 31.0185C277.507 30.3462 278.858 30.01 280.519 30.01C283.098 30.01 285.19 31.0185 286.796 33.0353C288.401 35.0521 289.203 38.0088 289.203 41.9053C289.203 44.5258 288.833 46.7279 288.092 48.5115C287.351 50.2814 286.315 51.6191 284.984 52.5246C283.654 53.4164 282.11 53.8623 280.354 53.8623C278.666 53.8623 277.336 53.5604 276.361 52.9568C275.387 52.3531 274.598 51.6739 273.995 50.9193H273.563L272.513 53.4507H267.718V21.4282H273.995ZM278.502 35.0316C277.404 35.0316 276.533 35.2579 275.888 35.7107C275.243 36.1635 274.77 36.8426 274.468 37.7481C274.18 38.6536 274.022 39.7993 273.995 41.185V41.8641C273.995 44.1005 274.324 45.8155 274.983 47.0091C275.641 48.1891 276.842 48.779 278.584 48.779C279.874 48.779 280.896 48.1822 281.65 46.9886C282.419 45.7949 282.803 44.0731 282.803 41.823C282.803 39.5729 282.419 37.8785 281.65 36.7397C280.882 35.6009 279.833 35.0316 278.502 35.0316Z" fill="#030B2A"/>
</svg>
