<svg width="700" height="142" viewBox="0 0 700 142" fill="none" xmlns="http://www.w3.org/2000/svg">
<rect y="0.727966" width="700" height="140.544" rx="68.0052" fill="url(#paint0_linear_1207_45)"/>
<g filter="url(#filter0_i_1207_45)">
<path d="M39.5544 109.29V99.0087L77.8621 47.288V46.9749H40.4416V33.9795H96.6506V44.2088L58.4995 95.9816V96.2948H97.6944V109.29H39.5544ZM128.725 110.438C123.053 110.438 118.148 109.273 114.007 106.942C109.867 104.61 106.666 101.27 104.404 96.921C102.142 92.5718 101.012 87.3702 101.012 81.3161V81.2117C101.012 75.1924 102.16 70.0256 104.456 65.7112C106.753 61.362 109.971 58.0218 114.111 55.6906C118.252 53.3595 123.106 52.1939 128.673 52.1939C134.274 52.1939 139.145 53.3595 143.286 55.6906C147.461 57.987 150.697 61.3098 152.993 65.659C155.29 69.9734 156.438 75.1577 156.438 81.2117V81.3161C156.438 87.405 155.29 92.624 152.993 96.9732C150.732 101.322 147.531 104.663 143.39 106.994C139.25 109.29 134.361 110.438 128.725 110.438ZM128.777 98.4868C131.247 98.4868 133.387 97.8257 135.196 96.5035C137.04 95.1466 138.45 93.1981 139.424 90.6582C140.433 88.0835 140.937 84.9694 140.937 81.3161V81.2117C140.937 77.5932 140.433 74.514 139.424 71.974C138.415 69.4341 136.988 67.5031 135.144 66.1809C133.3 64.824 131.143 64.1455 128.673 64.1455C126.237 64.1455 124.097 64.824 122.253 66.1809C120.444 67.5031 119.035 69.4341 118.026 71.974C117.017 74.514 116.512 77.5932 116.512 81.2117V81.3161C116.512 84.9694 116.999 88.0835 117.974 90.6582C118.983 93.1981 120.409 95.1466 122.253 96.5035C124.097 97.8257 126.272 98.4868 128.777 98.4868ZM186.581 110.438C180.875 110.438 175.969 109.273 171.863 106.942C167.758 104.576 164.591 101.218 162.365 96.8689C160.173 92.5197 159.077 87.3702 159.077 81.4205V81.3683C159.077 75.4186 160.173 70.2692 162.365 65.92C164.591 61.536 167.705 58.161 171.707 55.795C175.743 53.3943 180.492 52.1939 185.955 52.1939C191.417 52.1939 196.132 53.3595 200.098 55.6906C204.099 57.987 207.179 61.2402 209.336 65.4502C211.528 69.6603 212.624 74.5836 212.624 80.2201V84.9173H166.54V75.3142H205.422L198.167 84.291V78.4456C198.167 75.1751 197.663 72.4438 196.654 70.2518C195.645 68.025 194.235 66.3549 192.426 65.2415C190.652 64.1281 188.582 63.5714 186.216 63.5714C183.85 63.5714 181.745 64.1455 179.901 65.2937C178.091 66.4419 176.665 68.1294 175.621 70.3561C174.612 72.5481 174.107 75.2446 174.107 78.4456V84.3432C174.107 87.4398 174.612 90.0841 175.621 92.2761C176.665 94.4681 178.143 96.1556 180.057 97.3386C181.971 98.4868 184.25 99.0608 186.894 99.0608C188.982 99.0608 190.791 98.7303 192.322 98.0692C193.853 97.4082 195.105 96.5731 196.08 95.5641C197.054 94.5551 197.715 93.5287 198.063 92.4849L198.167 92.1717H212.154L211.998 92.7458C211.58 94.7986 210.762 96.8689 209.545 98.9565C208.327 101.044 206.674 102.958 204.587 104.697C202.534 106.437 200.011 107.829 197.019 108.873C194.062 109.916 190.582 110.438 186.581 110.438ZM254.591 109.29V46.9749H232.828V33.9795H292.168V46.9749H270.353V109.29H254.591ZM309.629 110.438C303.923 110.438 299.017 109.273 294.911 106.942C290.806 104.576 287.64 101.218 285.413 96.8689C283.221 92.5197 282.125 87.3702 282.125 81.4205V81.3683C282.125 75.4186 283.221 70.2692 285.413 65.92C287.64 61.536 290.754 58.161 294.755 55.795C298.791 53.3943 303.54 52.1939 309.003 52.1939C314.465 52.1939 319.18 53.3595 323.146 55.6906C327.148 57.987 330.227 61.2402 332.384 65.4502C334.576 69.6603 335.672 74.5836 335.672 80.2201V84.9173H289.588V75.3142H328.47L321.215 84.291V78.4456C321.215 75.1751 320.711 72.4438 319.702 70.2518C318.693 68.025 317.284 66.3549 315.474 65.2415C313.7 64.1281 311.63 63.5714 309.264 63.5714C306.898 63.5714 304.793 64.1455 302.949 65.2937C301.139 66.4419 299.713 68.1294 298.669 70.3561C297.66 72.5481 297.156 75.2446 297.156 78.4456V84.3432C297.156 87.4398 297.66 90.0841 298.669 92.2761C299.713 94.4681 301.192 96.1556 303.105 97.3386C305.019 98.4868 307.298 99.0608 309.942 99.0608C312.03 99.0608 313.839 98.7303 315.37 98.0692C316.901 97.4082 318.154 96.5731 319.128 95.5641C320.102 94.5551 320.763 93.5287 321.111 92.4849L321.215 92.1717H335.202L335.046 92.7458C334.628 94.7986 333.811 96.8689 332.593 98.9565C331.375 101.044 329.722 102.958 327.635 104.697C325.582 106.437 323.059 107.829 320.067 108.873C317.11 109.916 313.63 110.438 309.629 110.438ZM365.92 110.438C360.248 110.438 355.342 109.255 351.202 106.889C347.061 104.523 343.878 101.166 341.651 96.8167C339.424 92.4327 338.311 87.2484 338.311 81.2639V81.2117C338.311 75.2272 339.424 70.0778 341.651 65.7634C343.913 61.4142 347.096 58.074 351.202 55.7428C355.342 53.3769 360.196 52.1939 365.763 52.1939C370.843 52.1939 375.244 53.1507 378.967 55.0644C382.69 56.9432 385.595 59.5005 387.683 62.7363C389.805 65.9722 390.971 69.6081 391.18 73.6441V74.0095H377.036L376.932 73.5398C376.479 70.8606 375.331 68.6339 373.487 66.8594C371.643 65.0501 369.138 64.1455 365.972 64.1455C363.501 64.1455 361.344 64.8414 359.5 66.2331C357.691 67.5901 356.282 69.5559 355.273 72.1306C354.299 74.6705 353.811 77.715 353.811 81.2639V81.3161C353.811 84.9694 354.299 88.0835 355.273 90.6582C356.282 93.1981 357.691 95.1466 359.5 96.5035C361.344 97.8257 363.519 98.4868 366.024 98.4868C369.086 98.4868 371.539 97.6343 373.383 95.9294C375.262 94.1897 376.462 91.9108 376.984 89.0925L377.036 88.6228H391.232V88.9359C390.988 93.0068 389.805 96.6601 387.683 99.8959C385.561 103.132 382.638 105.706 378.915 107.62C375.227 109.499 370.895 110.438 365.92 110.438ZM395.75 109.29V33.9795H410.989V62.9973H411.302C412.764 59.5179 414.938 56.8562 417.826 55.0122C420.749 53.1333 424.298 52.1939 428.473 52.1939C432.544 52.1939 436.04 53.0985 438.963 54.9078C441.886 56.6823 444.13 59.2048 445.696 62.4754C447.296 65.746 448.096 69.6429 448.096 74.166V109.29H432.857V77.2975C432.857 73.4006 431.917 70.3561 430.039 68.1641C428.195 65.9374 425.533 64.824 422.053 64.824C419.827 64.824 417.878 65.3633 416.208 66.4419C414.573 67.4857 413.285 68.947 412.346 70.8259C411.441 72.6699 410.989 74.8097 410.989 77.2453V109.29H395.75ZM473.989 109.29V33.9795H489.751V64.563H523.674V33.9795H539.436V109.29H523.674V77.5584H489.751V109.29H473.989ZM566.5 110.438C562.394 110.438 558.897 109.603 556.009 107.933C553.156 106.228 550.964 103.81 549.433 100.679C547.937 97.5473 547.189 93.807 547.189 89.4578V53.3421H562.429V86.2742C562.429 89.9275 563.281 92.7632 564.986 94.7812C566.726 96.7993 569.301 97.8083 572.71 97.8083C574.415 97.8083 575.946 97.5125 577.303 96.921C578.695 96.3296 579.878 95.4945 580.852 94.4159C581.826 93.3025 582.574 91.9978 583.096 90.5016C583.618 88.9707 583.879 87.3006 583.879 85.4914V53.3421H599.119V109.29H583.879V100.052H583.566C582.592 102.175 581.304 104.019 579.704 105.585C578.138 107.15 576.242 108.351 574.015 109.186C571.823 110.021 569.318 110.438 566.5 110.438ZM638.969 110.438C636.29 110.438 633.837 110.003 631.61 109.134C629.384 108.264 627.435 107.046 625.765 105.48C624.095 103.88 622.755 101.966 621.746 99.7393H621.433V109.29H606.194V33.9795H621.433V63.0495H621.746C622.79 60.7879 624.147 58.8569 625.817 57.2564C627.487 55.6211 629.436 54.3685 631.662 53.4987C633.924 52.6288 636.377 52.1939 639.021 52.1939C643.718 52.1939 647.755 53.3595 651.13 55.6906C654.539 57.987 657.166 61.3098 659.01 65.659C660.854 69.9734 661.776 75.1751 661.776 81.2639V81.3161C661.776 87.3702 660.854 92.5718 659.01 96.921C657.166 101.27 654.539 104.61 651.13 106.942C647.72 109.273 643.666 110.438 638.969 110.438ZM633.907 97.8083C636.447 97.8083 638.639 97.1472 640.483 95.825C642.327 94.4681 643.753 92.5544 644.762 90.0841C645.771 87.6138 646.276 84.6911 646.276 81.3161V81.2639C646.276 77.8542 645.771 74.9315 644.762 72.4959C643.753 70.0256 642.309 68.1294 640.43 66.8072C638.586 65.485 636.412 64.824 633.907 64.824C631.436 64.824 629.262 65.5024 627.383 66.8594C625.539 68.1815 624.077 70.0778 622.999 72.5481C621.955 74.9837 621.433 77.889 621.433 81.2639V81.3161C621.433 84.6911 621.955 87.6138 622.999 90.0841C624.043 92.5544 625.504 94.4681 627.383 95.825C629.262 97.1472 631.436 97.8083 633.907 97.8083Z" fill="url(#paint1_linear_1207_45)"/>
</g>
<defs>
<filter id="filter0_i_1207_45" x="39.5544" y="33.9794" width="624.003" height="78.2404" filterUnits="userSpaceOnUse" color-interpolation-filters="sRGB">
<feFlood flood-opacity="0" result="BackgroundImageFix"/>
<feBlend mode="normal" in="SourceGraphic" in2="BackgroundImageFix" result="shape"/>
<feColorMatrix in="SourceAlpha" type="matrix" values="0 0 0 0 0 0 0 0 0 0 0 0 0 0 0 0 0 0 127 0" result="hardAlpha"/>
<feOffset dx="1.78143" dy="1.78143"/>
<feGaussianBlur stdDeviation="2.22679"/>
<feComposite in2="hardAlpha" operator="arithmetic" k2="-1" k3="1"/>
<feColorMatrix type="matrix" values="0 0 0 0 1 0 0 0 0 1 0 0 0 0 1 0 0 0 1 0"/>
<feBlend mode="normal" in2="shape" result="effect1_innerShadow_1207_45"/>
</filter>
<linearGradient id="paint0_linear_1207_45" x1="0" y1="141.272" x2="700.057" y2="13.057" gradientUnits="userSpaceOnUse">
<stop stop-color="#081D28"/>
<stop offset="0.199203" stop-color="#082331"/>
<stop offset="0.521094" stop-color="#083E58"/>
<stop offset="0.748552" stop-color="#063651"/>
<stop offset="0.997361" stop-color="#072D42"/>
</linearGradient>
<linearGradient id="paint1_linear_1207_45" x1="350" y1="29.2902" x2="350" y2="112.71" gradientUnits="userSpaceOnUse">
<stop stop-color="#AEAEAE"/>
<stop offset="0.485577" stop-color="white"/>
<stop offset="1" stop-color="#A9A9A9"/>
</linearGradient>
</defs>
</svg>
