<svg width="251" height="53" viewBox="0 0 251 53" fill="none" xmlns="http://www.w3.org/2000/svg">
<path d="M5.52551 38.4509V34.1516L17.8687 18.6186L18.0421 19.2427L16.8632 17.7172L17.6607 18.4106H6.01091V13.1405H25.8779V17.4398L13.5 32.9728L13.3267 32.314L14.5055 33.8742L13.7081 33.1808H25.7392V38.4509H5.52551ZM38.3847 39.1444C36.6973 39.1444 35.1949 38.8901 33.8773 38.3816C32.5598 37.8731 31.4388 37.1681 30.5142 36.2666C29.6127 35.3651 28.9193 34.325 28.4339 33.1461C27.9716 31.9673 27.7404 30.7075 27.7404 29.3669V28.5348C27.7404 27.1479 27.9831 25.8535 28.4685 24.6515C28.9771 23.4496 29.6936 22.3979 30.6182 21.4964C31.5428 20.5949 32.6638 19.8899 33.9814 19.3814C35.2989 18.8729 36.7667 18.6186 38.3847 18.6186C40.0258 18.6186 41.4936 18.8729 42.788 19.3814C44.1055 19.8899 45.2266 20.5949 46.1512 21.4964C47.0758 22.3979 47.7808 23.4496 48.2662 24.6515C48.7747 25.8535 49.0289 27.1479 49.0289 28.5348V29.3669C49.0289 30.7075 48.7862 31.9673 48.3008 33.1461C47.8385 34.325 47.1451 35.3651 46.2205 36.2666C45.3191 37.1681 44.2096 37.8731 42.892 38.3816C41.5745 38.8901 40.072 39.1444 38.3847 39.1444ZM38.3847 33.8742C39.3555 33.8742 40.1529 33.6662 40.777 33.2501C41.4242 32.8341 41.9097 32.2562 42.2333 31.5166C42.5569 30.7538 42.7187 29.8985 42.7187 28.9508C42.7187 27.9569 42.5453 27.0901 42.1986 26.3504C41.875 25.5877 41.3896 24.9867 40.7424 24.5475C40.0952 24.1083 39.3093 23.8887 38.3847 23.8887C37.4601 23.8887 36.6742 24.1083 36.027 24.5475C35.3798 24.9867 34.8828 25.5877 34.5361 26.3504C34.2125 27.0901 34.0507 27.9569 34.0507 28.9508C34.0507 29.8985 34.2125 30.7538 34.5361 31.5166C34.8597 32.2562 35.3451 32.8341 35.9923 33.2501C36.6395 33.6662 37.437 33.8742 38.3847 33.8742ZM61.4637 39.1444C59.8457 39.1444 58.4126 38.867 57.1644 38.3122C55.9162 37.7575 54.8645 37.0063 54.0092 36.0586C53.154 35.1109 52.4952 34.0476 52.0329 32.8688C51.5938 31.6899 51.3742 30.4764 51.3742 29.2282V28.5348C51.3742 27.2404 51.5938 26.0037 52.0329 24.8249C52.4952 23.6229 53.1424 22.5597 53.9746 21.6351C54.8298 20.7105 55.87 19.9824 57.095 19.4507C58.3201 18.896 59.707 18.6186 61.2557 18.6186C63.3129 18.6186 65.058 19.0809 66.4911 20.0055C67.9242 20.9301 69.0221 22.1552 69.7849 23.6807C70.5477 25.1832 70.9291 26.8243 70.9291 28.6041V30.6151H54.0092V27.2172H67.2886L65.1042 28.7428C65.1042 27.6564 64.954 26.7434 64.6535 26.0037C64.3761 25.2409 63.9485 24.6631 63.3706 24.2701C62.8159 23.8772 62.1109 23.6807 61.2557 23.6807C60.4235 23.6807 59.6954 23.8772 59.0713 24.2701C58.4703 24.64 58.0081 25.2178 57.6845 26.0037C57.3608 26.7665 57.199 27.7373 57.199 28.9162C57.199 29.9794 57.3493 30.904 57.6498 31.6899C57.9503 32.4527 58.4126 33.0421 59.0367 33.4582C59.6607 33.8742 60.4698 34.0823 61.4637 34.0823C62.342 34.0823 63.0586 33.932 63.6133 33.6315C64.1912 33.331 64.5957 32.9265 64.8269 32.418H70.5824C70.305 33.7124 69.7503 34.8682 68.9181 35.8852C68.1091 36.9023 67.069 37.6997 65.7977 38.2776C64.5495 38.8554 63.1048 39.1444 61.4637 39.1444ZM86.6712 38.4509V18.0639H93.1202V38.4509H86.6712ZM79.7368 18.7573V13.1405H100.055V18.7573H79.7368ZM109.578 39.1444C107.96 39.1444 106.527 38.867 105.278 38.3122C104.03 37.7575 102.978 37.0063 102.123 36.0586C101.268 35.1109 100.609 34.0476 100.147 32.8688C99.7077 31.6899 99.4882 30.4764 99.4882 29.2282V28.5348C99.4882 27.2404 99.7077 26.0037 100.147 24.8249C100.609 23.6229 101.256 22.5597 102.089 21.6351C102.944 20.7105 103.984 19.9824 105.209 19.4507C106.434 18.896 107.821 18.6186 109.37 18.6186C111.427 18.6186 113.172 19.0809 114.605 20.0055C116.038 20.9301 117.136 22.1552 117.899 23.6807C118.662 25.1832 119.043 26.8243 119.043 28.6041V30.6151H102.123V27.2172H115.403L113.218 28.7428C113.218 27.6564 113.068 26.7434 112.767 26.0037C112.49 25.2409 112.062 24.6631 111.485 24.2701C110.93 23.8772 110.225 23.6807 109.37 23.6807C108.538 23.6807 107.809 23.8772 107.185 24.2701C106.584 24.64 106.122 25.2178 105.798 26.0037C105.475 26.7665 105.313 27.7373 105.313 28.9162C105.313 29.9794 105.463 30.904 105.764 31.6899C106.064 32.4527 106.527 33.0421 107.151 33.4582C107.775 33.8742 108.584 34.0823 109.578 34.0823C110.456 34.0823 111.173 33.932 111.727 33.6315C112.305 33.331 112.71 32.9265 112.941 32.418H118.696C118.419 33.7124 117.864 34.8682 117.032 35.8852C116.223 36.9023 115.183 37.6997 113.912 38.2776C112.663 38.8554 111.219 39.1444 109.578 39.1444ZM131.106 39.1444C129.442 39.1444 127.998 38.8785 126.772 38.3469C125.547 37.7922 124.519 37.0525 123.687 36.1279C122.878 35.2033 122.265 34.1516 121.849 32.9728C121.456 31.7939 121.26 30.5689 121.26 29.2976V28.6041C121.26 27.2635 121.468 25.9922 121.884 24.7902C122.323 23.5883 122.959 22.525 123.791 21.6004C124.623 20.6758 125.651 19.9477 126.876 19.4161C128.102 18.8844 129.512 18.6186 131.106 18.6186C132.863 18.6186 134.412 18.9653 135.752 19.6588C137.093 20.3522 138.156 21.3115 138.942 22.5365C139.751 23.7385 140.202 25.1254 140.294 26.6972H134.123C134.054 25.9344 133.765 25.2872 133.256 24.7555C132.771 24.2239 132.054 23.9581 131.106 23.9581C130.297 23.9581 129.627 24.1661 129.095 24.5822C128.587 24.9982 128.206 25.5761 127.951 26.3158C127.697 27.0554 127.57 27.9338 127.57 28.9508C127.57 29.8985 127.674 30.7422 127.882 31.4819C128.113 32.2215 128.483 32.7994 128.991 33.2155C129.523 33.6084 130.228 33.8049 131.106 33.8049C131.754 33.8049 132.297 33.6893 132.736 33.4582C133.175 33.227 133.522 32.9034 133.776 32.4874C134.03 32.0482 134.192 31.5397 134.262 30.9618H140.433C140.341 32.5798 139.878 34.0014 139.046 35.2264C138.237 36.4515 137.151 37.4108 135.787 38.1042C134.423 38.7976 132.863 39.1444 131.106 39.1444ZM143.633 38.4509V13.1405H149.943V27.564H149.111C149.111 25.6223 149.354 23.9928 149.839 22.6752C150.324 21.3577 151.029 20.3638 151.954 19.6934C152.902 19.0231 154.069 18.688 155.456 18.688H155.733C157.814 18.688 159.397 19.4392 160.483 20.9416C161.593 22.4441 162.148 24.6515 162.148 27.564V38.4509H155.837V27.3213C155.837 26.4429 155.571 25.7264 155.04 25.1716C154.508 24.5937 153.803 24.3048 152.925 24.3048C152.046 24.3048 151.33 24.5937 150.775 25.1716C150.22 25.7264 149.943 26.466 149.943 27.3906V38.4509H143.633ZM189.828 38.4509V13.1405H196.277V38.4509H189.828ZM173.74 38.4509V13.1405H180.189V38.4509H173.74ZM179.08 28.5001V22.8833H190.937V28.5001H179.08ZM207.54 39.075C205.367 39.075 203.68 38.37 202.478 36.96C201.299 35.5269 200.71 33.3426 200.71 30.4071V19.3121H207.02V30.5804C207.02 31.4357 207.274 32.1291 207.783 32.6607C208.291 33.1924 208.973 33.4582 209.828 33.4582C210.684 33.4582 211.377 33.1924 211.909 32.6607C212.44 32.1291 212.706 31.4125 212.706 30.5111V19.3121H219.016V38.4509H214.024V30.4071H214.37C214.37 32.3718 214.116 34.0014 213.608 35.2958C213.122 36.5671 212.394 37.5148 211.423 38.1389C210.452 38.763 209.251 39.075 207.817 39.075H207.54ZM236.019 39.075C234.447 39.075 233.072 38.7514 231.893 38.1042C230.737 37.457 229.824 36.5093 229.154 35.2611C228.507 34.0129 228.16 32.4874 228.114 30.6844H228.669V38.4509H223.676V13.1405H229.986V26.1771L228.599 27.564C228.669 25.6917 229.027 24.0968 229.674 22.7792C230.321 21.4617 231.211 20.4678 232.344 19.7975C233.5 19.104 234.829 18.7573 236.331 18.7573C237.626 18.7573 238.793 19 239.833 19.4854C240.873 19.9477 241.752 20.618 242.468 21.4964C243.208 22.3516 243.774 23.3687 244.167 24.5475C244.56 25.7264 244.756 27.0208 244.756 28.4308V29.2629C244.756 30.6729 244.56 31.9788 244.167 33.1808C243.774 34.3596 243.196 35.3998 242.433 36.3013C241.671 37.1796 240.746 37.8615 239.66 38.3469C238.596 38.8323 237.383 39.075 236.019 39.075ZM234.216 33.8742C235.048 33.8742 235.776 33.6662 236.401 33.2501C237.048 32.811 237.545 32.21 237.891 31.4472C238.261 30.6844 238.446 29.8176 238.446 28.8468C238.446 27.8529 238.261 26.9977 237.891 26.2811C237.545 25.5414 237.059 24.9751 236.435 24.5822C235.811 24.1661 235.071 23.9581 234.216 23.9581C233.453 23.9581 232.737 24.1314 232.067 24.4782C231.419 24.8249 230.888 25.3334 230.472 26.0037C230.056 26.6741 229.848 27.4831 229.848 28.4308V29.6096C229.848 30.5111 230.067 31.2854 230.506 31.9326C230.946 32.5567 231.5 33.0421 232.171 33.3888C232.841 33.7124 233.523 33.8742 234.216 33.8742Z" fill="white"/>
</svg>
