<svg width="151" height="39" viewBox="0 0 151 39" fill="none" xmlns="http://www.w3.org/2000/svg">
<path d="M16.3543 27.9399H5.1737V25.8744L12.3774 15.5468H5.36895V12.916H16.159V14.9713L8.96564 25.3092H16.3543V27.9399ZM28.9427 22.175C28.9427 23.1341 28.8125 23.9836 28.5522 24.7235C28.2987 25.4634 27.9253 26.0902 27.4321 26.604C26.9457 27.111 26.3565 27.4946 25.6646 27.755C24.9795 28.0153 24.2053 28.1455 23.3421 28.1455C22.5337 28.1455 21.7904 28.0153 21.1122 27.755C20.4408 27.4946 19.8551 27.111 19.3549 26.604C18.8617 26.0902 18.478 25.4634 18.204 24.7235C17.9368 23.9836 17.8032 23.1341 17.8032 22.175C17.8032 20.9007 18.0293 19.8217 18.4815 18.9379C18.9336 18.0542 19.5776 17.3828 20.4134 16.9238C21.2492 16.4648 22.246 16.2353 23.4038 16.2353C24.4794 16.2353 25.4316 16.4648 26.2606 16.9238C27.0964 17.3828 27.7507 18.0542 28.2234 18.9379C28.7029 19.8217 28.9427 20.9007 28.9427 22.175ZM20.9991 22.175C20.9991 22.9286 21.0814 23.5623 21.2458 24.0761C21.4102 24.5899 21.6671 24.977 22.0165 25.2373C22.3659 25.4976 22.8215 25.6278 23.3832 25.6278C23.9382 25.6278 24.3869 25.4976 24.7294 25.2373C25.0788 24.977 25.3323 24.5899 25.4899 24.0761C25.6543 23.5623 25.7365 22.9286 25.7365 22.175C25.7365 21.4145 25.6543 20.7842 25.4899 20.2841C25.3323 19.7772 25.0788 19.3969 24.7294 19.1435C24.38 18.89 23.9245 18.7632 23.3627 18.7632C22.5337 18.7632 21.9309 19.0475 21.5541 19.6162C21.1841 20.1848 20.9991 21.0377 20.9991 22.175ZM36.2697 16.2353C37.3316 16.2353 38.2461 16.4408 39.0134 16.8519C39.7807 17.2561 40.3733 17.8452 40.7912 18.6194C41.2091 19.3935 41.4181 20.3389 41.4181 21.4556V22.9765H34.0089C34.0431 23.8603 34.3069 24.5556 34.8002 25.0626C35.3003 25.5627 35.9922 25.8128 36.876 25.8128C37.609 25.8128 38.2804 25.7374 38.8901 25.5867C39.4998 25.436 40.1267 25.2099 40.7707 24.9084V27.3336C40.2021 27.6145 39.606 27.8201 38.9826 27.9502C38.366 28.0804 37.6159 28.1455 36.7321 28.1455C35.5812 28.1455 34.5604 27.9331 33.6698 27.5083C32.786 27.0836 32.0907 26.4362 31.5837 25.5661C31.0836 24.6961 30.8335 23.5999 30.8335 22.2777C30.8335 20.935 31.0596 19.8183 31.5118 18.9277C31.9708 18.0302 32.6079 17.3588 33.4231 16.9135C34.2384 16.4614 35.1872 16.2353 36.2697 16.2353ZM36.2902 18.4652C35.6805 18.4652 35.1735 18.6605 34.7693 19.051C34.372 19.4415 34.1425 20.0546 34.0808 20.8904H38.4791C38.4722 20.4246 38.3866 20.0101 38.2222 19.647C38.0646 19.2839 37.8248 18.9962 37.5028 18.7838C37.1877 18.5714 36.7835 18.4652 36.2902 18.4652ZM55.476 27.9399H52.2904V15.5673H48.2107V12.916H59.5557V15.5673H55.476V27.9399ZM66.3586 16.2353C67.4204 16.2353 68.335 16.4408 69.1023 16.8519C69.8696 17.2561 70.4622 17.8452 70.8801 18.6194C71.298 19.3935 71.507 20.3389 71.507 21.4556V22.9765H64.0978C64.132 23.8603 64.3958 24.5556 64.8891 25.0626C65.3892 25.5627 66.0811 25.8128 66.9649 25.8128C67.6979 25.8128 68.3693 25.7374 68.979 25.5867C69.5887 25.436 70.2156 25.2099 70.8596 24.9084V27.3336C70.291 27.6145 69.6949 27.8201 69.0715 27.9502C68.4549 28.0804 67.7048 28.1455 66.821 28.1455C65.6701 28.1455 64.6493 27.9331 63.7587 27.5083C62.8749 27.0836 62.1796 26.4362 61.6726 25.5661C61.1725 24.6961 60.9224 23.5999 60.9224 22.2777C60.9224 20.935 61.1485 19.8183 61.6007 18.9277C62.0597 18.0302 62.6968 17.3588 63.512 16.9135C64.3273 16.4614 65.2761 16.2353 66.3586 16.2353ZM66.3791 18.4652C65.7694 18.4652 65.2624 18.6605 64.8582 19.051C64.4609 19.4415 64.2314 20.0546 64.1697 20.8904H68.568C68.5611 20.4246 68.4755 20.0101 68.3111 19.647C68.1535 19.2839 67.9137 18.9962 67.5917 18.7838C67.2766 18.5714 66.8724 18.4652 66.3791 18.4652ZM78.7209 28.1455C77.5837 28.1455 76.6143 27.9399 75.8127 27.5289C75.0112 27.111 74.4015 26.467 73.9836 25.597C73.5657 24.7269 73.3567 23.6136 73.3567 22.2572C73.3567 20.8527 73.5931 19.7087 74.0658 18.8249C74.5453 17.9343 75.2064 17.28 76.0491 16.8621C76.8986 16.4442 77.8817 16.2353 78.9984 16.2353C79.7931 16.2353 80.4782 16.3141 81.0536 16.4716C81.6359 16.6224 82.1429 16.8039 82.5745 17.0163L81.6496 19.4415C81.1564 19.2428 80.6974 19.0818 80.2726 18.9585C79.8479 18.8283 79.4231 18.7632 78.9984 18.7632C78.4503 18.7632 77.9947 18.8934 77.6316 19.1537C77.2685 19.4072 76.9979 19.7909 76.8198 20.3047C76.6417 20.8185 76.5526 21.4625 76.5526 22.2366C76.5526 22.9971 76.6485 23.6273 76.8404 24.1274C77.0322 24.6276 77.3096 25.0009 77.6727 25.2476C78.0358 25.4873 78.4777 25.6072 78.9984 25.6072C79.6492 25.6072 80.2281 25.5216 80.7351 25.3503C81.242 25.1722 81.7353 24.9256 82.2148 24.6104V27.2925C81.7353 27.594 81.2317 27.8098 80.7042 27.9399C80.1836 28.077 79.5225 28.1455 78.7209 28.1455ZM88.0209 11.9501V15.2077C88.0209 15.7763 88.0004 16.3175 87.9593 16.8313C87.925 17.3451 87.8976 17.7082 87.8771 17.9206H88.0415C88.2881 17.5232 88.5793 17.2012 88.915 16.9546C89.2575 16.708 89.6343 16.5264 90.0453 16.41C90.4564 16.2935 90.8983 16.2353 91.371 16.2353C92.1999 16.2353 92.9227 16.3826 93.5393 16.6772C94.1559 16.9649 94.6354 17.4205 94.978 18.0439C95.3205 18.6605 95.4918 19.462 95.4918 20.4485V27.9399H92.3575V21.2295C92.3575 20.4074 92.2068 19.7874 91.9054 19.3695C91.6039 18.9516 91.1381 18.7427 90.5078 18.7427C89.8775 18.7427 89.3808 18.89 89.0177 19.1846C88.6546 19.4723 88.3977 19.9005 88.247 20.4691C88.0963 21.0309 88.0209 21.7194 88.0209 22.5346V27.9399H84.8867V11.9501H88.0209ZM116.743 27.9399H113.568V21.4556H107.618V27.9399H104.432V12.916H107.618V18.8043H113.568V12.916H116.743V27.9399ZM130.842 16.4511V27.9399H128.437L128.016 26.4704H127.852C127.605 26.8609 127.297 27.1795 126.927 27.4261C126.557 27.6728 126.149 27.8543 125.704 27.9708C125.259 28.0872 124.796 28.1455 124.317 28.1455C123.495 28.1455 122.779 28.0016 122.169 27.7139C121.559 27.4193 121.083 26.9637 120.741 26.3471C120.405 25.7305 120.237 24.929 120.237 23.9425V16.4511H123.371V23.1615C123.371 23.9836 123.519 24.6036 123.813 25.0215C124.108 25.4394 124.577 25.6483 125.221 25.6483C125.858 25.6483 126.358 25.5045 126.721 25.2167C127.084 24.9221 127.338 24.494 127.482 23.9322C127.632 23.3636 127.708 22.6716 127.708 21.8564V16.4511H130.842ZM137.265 11.9501V15.6701C137.265 16.1017 137.251 16.5299 137.224 16.9546C137.203 17.3794 137.176 17.7082 137.141 17.9411H137.265C137.566 17.4684 137.977 17.0677 138.498 16.7388C139.019 16.4031 139.693 16.2353 140.522 16.2353C141.81 16.2353 142.855 16.7388 143.657 17.7459C144.458 18.753 144.859 20.2293 144.859 22.175C144.859 23.4835 144.674 24.583 144.304 25.4736C143.934 26.3574 143.417 27.0254 142.752 27.4775C142.088 27.9228 141.317 28.1455 140.44 28.1455C139.597 28.1455 138.933 27.9947 138.447 27.6933C137.96 27.3919 137.566 27.0528 137.265 26.676H137.049L136.525 27.9399H134.131V11.9501H137.265ZM139.515 18.7427C138.967 18.7427 138.532 18.8557 138.21 19.0818C137.888 19.3079 137.652 19.647 137.501 20.0992C137.357 20.5513 137.278 21.1234 137.265 21.8153V22.1544C137.265 23.2711 137.429 24.1274 137.758 24.7235C138.087 25.3126 138.686 25.6072 139.556 25.6072C140.2 25.6072 140.711 25.3092 141.088 24.7132C141.471 24.1172 141.663 23.2574 141.663 22.1339C141.663 21.0103 141.471 20.1642 141.088 19.5956C140.704 19.027 140.18 18.7427 139.515 18.7427Z" fill="white"/>
</svg>
