<svg width="208" height="48" viewBox="0 0 208 48" fill="none" xmlns="http://www.w3.org/2000/svg">
<path d="M7.00174 33.4357V29.9561L16.9915 17.3847L17.1318 17.8898L16.1777 16.6552L16.8231 17.2164H7.3946V12.9511H23.4736V16.4307L13.4558 29.002L13.3155 28.4689L14.2696 29.7316L13.6242 29.1704H23.3613V33.4357H7.00174ZM33.5957 33.9969C32.2301 33.9969 31.0141 33.7911 29.9478 33.3795C28.8815 32.968 27.9742 32.3974 27.2259 31.6678C26.4963 30.9382 25.9351 30.0964 25.5422 29.1423C25.1681 28.1883 24.981 27.1687 24.981 26.0837V25.4102C24.981 24.2878 25.1774 23.2402 25.5703 22.2674C25.9818 21.2946 26.5618 20.4434 27.31 19.7138C28.0583 18.9842 28.9657 18.4137 30.032 18.0021C31.0983 17.5905 32.2862 17.3847 33.5957 17.3847C34.9239 17.3847 36.1119 17.5905 37.1595 18.0021C38.2258 18.4137 39.1331 18.9842 39.8814 19.7138C40.6297 20.4434 41.2003 21.2946 41.5931 22.2674C42.0047 23.2402 42.2105 24.2878 42.2105 25.4102V26.0837C42.2105 27.1687 42.014 28.1883 41.6212 29.1423C41.247 30.0964 40.6858 30.9382 39.9375 31.6678C39.2079 32.3974 38.31 32.968 37.2437 33.3795C36.1773 33.7911 34.9614 33.9969 33.5957 33.9969ZM33.5957 29.7316C34.3814 29.7316 35.0268 29.5632 35.5319 29.2265C36.0557 28.8898 36.4486 28.4221 36.7105 27.8235C36.9724 27.2061 37.1034 26.5139 37.1034 25.7469C37.1034 24.9425 36.9631 24.241 36.6824 23.6424C36.4205 23.025 36.0277 22.5386 35.5039 22.1832C34.9801 21.8277 34.344 21.65 33.5957 21.65C32.8474 21.65 32.2114 21.8277 31.6876 22.1832C31.1638 22.5386 30.7616 23.025 30.4809 23.6424C30.219 24.241 30.0881 24.9425 30.0881 25.7469C30.0881 26.5139 30.219 27.2061 30.4809 27.8235C30.7429 28.4221 31.1357 28.8898 31.6595 29.2265C32.1833 29.5632 32.8287 29.7316 33.5957 29.7316ZM52.2743 33.9969C50.9648 33.9969 49.8049 33.7724 48.7947 33.3234C47.7845 32.8744 46.9333 32.2665 46.2412 31.4995C45.549 30.7325 45.0158 29.8719 44.6417 28.9178C44.2863 27.9638 44.1085 26.9816 44.1085 25.9714V25.4102C44.1085 24.3626 44.2863 23.3618 44.6417 22.4077C45.0158 21.4349 45.5396 20.5744 46.2131 19.8261C46.9053 19.0778 47.7471 18.4885 48.7386 18.0582C49.7301 17.6092 50.8525 17.3847 52.1059 17.3847C53.7709 17.3847 55.1833 17.7589 56.3432 18.5072C57.503 19.2555 58.3916 20.247 59.0089 21.4817C59.6263 22.6976 59.935 24.0259 59.935 25.4663V27.0939H46.2412V24.3439H56.9886L55.2207 25.5786C55.2207 24.6993 55.0991 23.9604 54.8559 23.3618C54.6314 22.7444 54.2853 22.2767 53.8177 21.9587C53.3687 21.6407 52.7981 21.4817 52.1059 21.4817C51.4325 21.4817 50.8432 21.6407 50.3381 21.9587C49.8517 22.258 49.4775 22.7257 49.2156 23.3618C48.9537 23.9791 48.8228 24.7648 48.8228 25.7189C48.8228 26.5794 48.9444 27.3277 49.1876 27.9638C49.4308 28.5811 49.8049 29.0581 50.31 29.3949C50.8151 29.7316 51.4699 29.9 52.2743 29.9C52.9852 29.9 53.5651 29.7784 54.0141 29.5352C54.4818 29.292 54.8091 28.9646 54.9962 28.553H59.6544C59.4299 29.6007 58.9809 30.536 58.3074 31.3592C57.6527 32.1823 56.8108 32.8277 55.7819 33.2954C54.7717 33.763 53.6025 33.9969 52.2743 33.9969ZM72.6756 33.4357V16.9358H77.8949V33.4357H72.6756ZM67.0633 17.497V12.9511H83.5071V17.497H67.0633ZM91.2145 33.9969C89.905 33.9969 88.7451 33.7724 87.7349 33.3234C86.7247 32.8744 85.8735 32.2665 85.1814 31.4995C84.4892 30.7325 83.956 29.8719 83.5819 28.9178C83.2264 27.9638 83.0487 26.9816 83.0487 25.9714V25.4102C83.0487 24.3626 83.2264 23.3618 83.5819 22.4077C83.956 21.4349 84.4798 20.5744 85.1533 19.8261C85.8455 19.0778 86.6873 18.4885 87.6788 18.0582C88.6703 17.6092 89.7927 17.3847 91.0461 17.3847C92.7111 17.3847 94.1235 17.7589 95.2833 18.5072C96.4432 19.2555 97.3318 20.247 97.9491 21.4817C98.5665 22.6976 98.8752 24.0259 98.8752 25.4663V27.0939H85.1814V24.3439H95.9287L94.1609 25.5786C94.1609 24.6993 94.0393 23.9604 93.7961 23.3618C93.5716 22.7444 93.2255 22.2767 92.7578 21.9587C92.3089 21.6407 91.7383 21.4817 91.0461 21.4817C90.3727 21.4817 89.7834 21.6407 89.2783 21.9587C88.7919 22.258 88.4177 22.7257 88.1558 23.3618C87.8939 23.9791 87.763 24.7648 87.763 25.7189C87.763 26.5794 87.8846 27.3277 88.1278 27.9638C88.371 28.5811 88.7451 29.0581 89.2502 29.3949C89.7553 29.7316 90.4101 29.9 91.2145 29.9C91.9254 29.9 92.5053 29.7784 92.9543 29.5352C93.422 29.292 93.7493 28.9646 93.9364 28.553H98.5945C98.3701 29.6007 97.9211 30.536 97.2476 31.3592C96.5929 32.1823 95.751 32.8277 94.7221 33.2954C93.7119 33.763 92.5427 33.9969 91.2145 33.9969ZM108.638 33.9969C107.291 33.9969 106.122 33.7818 105.131 33.3515C104.139 32.9025 103.307 32.3039 102.633 31.5556C101.979 30.8073 101.483 29.9561 101.146 29.002C100.828 28.0479 100.669 27.0565 100.669 26.0276V25.4663C100.669 24.3813 100.837 23.3524 101.174 22.3796C101.53 21.4068 102.044 20.5463 102.718 19.798C103.391 19.0497 104.223 18.4604 105.215 18.0302C106.206 17.5999 107.348 17.3847 108.638 17.3847C110.06 17.3847 111.314 17.6654 112.399 18.2266C113.484 18.7878 114.344 19.5642 114.98 20.5556C115.635 21.5284 116 22.6509 116.075 23.923H111.08C111.024 23.3056 110.79 22.7818 110.378 22.3516C109.985 21.9213 109.405 21.7062 108.638 21.7062C107.984 21.7062 107.441 21.8745 107.011 22.2112C106.599 22.548 106.291 23.0157 106.085 23.6143C105.879 24.2129 105.776 24.9238 105.776 25.7469C105.776 26.5139 105.86 27.1968 106.029 27.7954C106.216 28.394 106.515 28.8617 106.927 29.1985C107.357 29.5165 107.928 29.6755 108.638 29.6755C109.162 29.6755 109.602 29.582 109.957 29.3949C110.313 29.2078 110.593 28.9459 110.799 28.6092C111.005 28.2537 111.136 27.8422 111.192 27.3745H116.187C116.112 28.684 115.738 29.8345 115.064 30.826C114.41 31.8175 113.53 32.5938 112.427 33.1551C111.323 33.7163 110.06 33.9969 108.638 33.9969ZM118.776 33.4357V12.9511H123.883V24.6245H123.21C123.21 23.0531 123.406 21.7342 123.799 20.6679C124.192 19.6016 124.763 18.7972 125.511 18.2546C126.278 17.7121 127.223 17.4409 128.345 17.4409H128.57C130.253 17.4409 131.535 18.0489 132.414 19.2648C133.312 20.4808 133.761 22.2674 133.761 24.6245V33.4357H128.654V24.4281C128.654 23.7172 128.439 23.1373 128.008 22.6883C127.578 22.2206 127.008 21.9868 126.297 21.9868C125.586 21.9868 125.006 22.2206 124.557 22.6883C124.108 23.1373 123.883 23.7359 123.883 24.4842V33.4357H118.776ZM156.164 33.4357V12.9511H161.383V33.4357H156.164ZM143.143 33.4357V12.9511H148.363V33.4357H143.143ZM147.465 25.3821V20.8363H157.061V25.3821H147.465ZM170.499 33.9408C168.74 33.9408 167.374 33.3702 166.402 32.229C165.448 31.0692 164.971 29.3013 164.971 26.9255V17.946H170.078V27.0658C170.078 27.758 170.283 28.3192 170.695 28.7495C171.107 29.1797 171.658 29.3949 172.351 29.3949C173.043 29.3949 173.604 29.1797 174.034 28.7495C174.465 28.3192 174.68 27.7393 174.68 27.0097V17.946H179.787V33.4357H175.746V26.9255H176.027C176.027 28.5156 175.821 29.8345 175.409 30.8821C175.016 31.911 174.427 32.678 173.641 33.1831C172.856 33.6882 171.883 33.9408 170.723 33.9408H170.499ZM193.548 33.9408C192.276 33.9408 191.162 33.6789 190.208 33.1551C189.273 32.6313 188.534 31.8643 187.992 30.8541C187.468 29.8439 187.187 28.6092 187.15 27.15H187.599V33.4357H183.558V12.9511H188.665V23.5021L187.543 24.6245C187.599 23.1092 187.889 21.8184 188.412 20.7521C188.936 19.6858 189.657 18.8813 190.573 18.3388C191.509 17.7776 192.584 17.497 193.8 17.497C194.848 17.497 195.793 17.6934 196.634 18.0863C197.476 18.4604 198.187 19.0029 198.767 19.7138C199.366 20.406 199.824 21.2291 200.142 22.1832C200.46 23.1373 200.619 24.1849 200.619 25.326V25.9995C200.619 27.1406 200.46 28.1976 200.142 29.1704C199.824 30.1245 199.356 30.9663 198.739 31.6959C198.122 32.4068 197.373 32.9586 196.494 33.3515C195.634 33.7443 194.651 33.9408 193.548 33.9408ZM192.088 29.7316C192.762 29.7316 193.351 29.5632 193.856 29.2265C194.38 28.8711 194.782 28.3847 195.063 27.7673C195.362 27.15 195.512 26.4485 195.512 25.6628C195.512 24.8583 195.362 24.1662 195.063 23.5862C194.782 22.9876 194.389 22.5293 193.884 22.2112C193.379 21.8745 192.781 21.7062 192.088 21.7062C191.471 21.7062 190.891 21.8465 190.349 22.1271C189.825 22.4077 189.395 22.8192 189.058 23.3618C188.721 23.9043 188.553 24.559 188.553 25.326V26.2801C188.553 27.0097 188.731 27.6364 189.086 28.1602C189.441 28.6653 189.89 29.0581 190.433 29.3388C190.975 29.6007 191.527 29.7316 192.088 29.7316Z" fill="white"/>
</svg>
