<svg width="1398" height="173" viewBox="0 0 1398 173" fill="none" xmlns="http://www.w3.org/2000/svg">
<g filter="url(#filter0_i_1204_45)">
<path d="M0.429688 170V146.914L86.4453 30.7812V30.0781H2.42188V0.898438H128.633V23.8672L42.9688 140.117V140.82H130.977V170H0.429688ZM200.652 172.578C187.917 172.578 176.902 169.961 167.605 164.727C158.308 159.492 151.12 151.992 146.042 142.227C140.964 132.461 138.425 120.781 138.425 107.188V106.953C138.425 93.4375 141.003 81.8359 146.159 72.1484C151.316 62.3828 158.542 54.8828 167.839 49.6484C177.136 44.4141 188.034 41.7969 200.534 41.7969C213.113 41.7969 224.05 44.4141 233.347 49.6484C242.722 54.8047 249.988 62.2656 255.144 72.0312C260.3 81.7188 262.878 93.3594 262.878 106.953V107.188C262.878 120.859 260.3 132.578 255.144 142.344C250.066 152.109 242.878 159.609 233.581 164.844C224.284 170 213.308 172.578 200.652 172.578ZM200.769 145.742C206.316 145.742 211.12 144.258 215.183 141.289C219.323 138.242 222.488 133.867 224.675 128.164C226.941 122.383 228.073 115.391 228.073 107.188V106.953C228.073 98.8281 226.941 91.9141 224.675 86.2109C222.409 80.5078 219.206 76.1719 215.066 73.2031C210.925 70.1562 206.081 68.6328 200.534 68.6328C195.066 68.6328 190.261 70.1562 186.12 73.2031C182.058 76.1719 178.894 80.5078 176.628 86.2109C174.363 91.9141 173.23 98.8281 173.23 106.953V107.188C173.23 115.391 174.323 122.383 176.511 128.164C178.777 133.867 181.98 138.242 186.12 141.289C190.261 144.258 195.144 145.742 200.769 145.742ZM330.561 172.578C317.748 172.578 306.733 169.961 297.514 164.727C288.295 159.414 281.186 151.875 276.186 142.109C271.264 132.344 268.803 120.781 268.803 107.422V107.305C268.803 93.9453 271.264 82.3828 276.186 72.6172C281.186 62.7734 288.178 55.1953 297.163 49.8828C306.225 44.4922 316.889 41.7969 329.155 41.7969C341.42 41.7969 352.006 44.4141 360.913 49.6484C369.897 54.8047 376.811 62.1094 381.655 71.5625C386.577 81.0156 389.038 92.0703 389.038 104.727V115.273H285.561V93.7109H372.866L356.577 113.867V100.742C356.577 93.3984 355.444 87.2656 353.178 82.3438C350.913 77.3438 347.748 73.5938 343.686 71.0938C339.702 68.5938 335.053 67.3438 329.741 67.3438C324.428 67.3438 319.702 68.6328 315.561 71.2109C311.498 73.7891 308.295 77.5781 305.952 82.5781C303.686 87.5 302.553 93.5547 302.553 100.742V113.984C302.553 120.938 303.686 126.875 305.952 131.797C308.295 136.719 311.616 140.508 315.913 143.164C320.209 145.742 325.327 147.031 331.264 147.031C335.952 147.031 340.014 146.289 343.452 144.805C346.889 143.32 349.702 141.445 351.889 139.18C354.077 136.914 355.561 134.609 356.342 132.266L356.577 131.562H387.983L387.631 132.852C386.694 137.461 384.858 142.109 382.123 146.797C379.389 151.484 375.678 155.781 370.991 159.688C366.381 163.594 360.717 166.719 353.998 169.062C347.358 171.406 339.545 172.578 330.561 172.578ZM483.27 170V30.0781H434.403V0.898438H567.645V30.0781H518.661V170H483.27ZM606.852 172.578C594.039 172.578 583.023 169.961 573.805 164.727C564.586 159.414 557.477 151.875 552.477 142.109C547.555 132.344 545.094 120.781 545.094 107.422V107.305C545.094 93.9453 547.555 82.3828 552.477 72.6172C557.477 62.7734 564.469 55.1953 573.453 49.8828C582.516 44.4922 593.18 41.7969 605.445 41.7969C617.711 41.7969 628.297 44.4141 637.203 49.6484C646.188 54.8047 653.102 62.1094 657.945 71.5625C662.867 81.0156 665.328 92.0703 665.328 104.727V115.273H561.852V93.7109H649.156L632.867 113.867V100.742C632.867 93.3984 631.734 87.2656 629.469 82.3438C627.203 77.3438 624.039 73.5938 619.977 71.0938C615.992 68.5938 611.344 67.3438 606.031 67.3438C600.719 67.3438 595.992 68.6328 591.852 71.2109C587.789 73.7891 584.586 77.5781 582.242 82.5781C579.977 87.5 578.844 93.5547 578.844 100.742V113.984C578.844 120.938 579.977 126.875 582.242 131.797C584.586 136.719 587.906 140.508 592.203 143.164C596.5 145.742 601.617 147.031 607.555 147.031C612.242 147.031 616.305 146.289 619.742 144.805C623.18 143.32 625.992 141.445 628.18 139.18C630.367 136.914 631.852 134.609 632.633 132.266L632.867 131.562H664.273L663.922 132.852C662.984 137.461 661.148 142.109 658.414 146.797C655.68 151.484 651.969 155.781 647.281 159.688C642.672 163.594 637.008 166.719 630.289 169.062C623.648 171.406 615.836 172.578 606.852 172.578ZM733.245 172.578C720.511 172.578 709.495 169.922 700.198 164.609C690.902 159.297 683.753 151.758 678.753 141.992C673.753 132.148 671.253 120.508 671.253 107.07V106.953C671.253 93.5156 673.753 81.9531 678.753 72.2656C683.831 62.5 690.98 55 700.198 49.7656C709.495 44.4531 720.394 41.7969 732.894 41.7969C744.3 41.7969 754.183 43.9453 762.542 48.2422C770.902 52.4609 777.425 58.2031 782.112 65.4688C786.878 72.7344 789.495 80.8984 789.964 89.9609V90.7812H758.206L757.972 89.7266C756.956 83.7109 754.378 78.7109 750.237 74.7266C746.097 70.6641 740.472 68.6328 733.362 68.6328C727.816 68.6328 722.972 70.1953 718.831 73.3203C714.769 76.3672 711.605 80.7812 709.339 86.5625C707.152 92.2656 706.058 99.1016 706.058 107.07V107.188C706.058 115.391 707.152 122.383 709.339 128.164C711.605 133.867 714.769 138.242 718.831 141.289C722.972 144.258 727.855 145.742 733.48 145.742C740.355 145.742 745.862 143.828 750.003 140C754.222 136.094 756.917 130.977 758.089 124.648L758.206 123.594H790.081V124.297C789.534 133.438 786.878 141.641 782.112 148.906C777.347 156.172 770.784 161.953 762.425 166.25C754.144 170.469 744.417 172.578 733.245 172.578ZM800.225 170V0.898438H834.444V66.0547H835.147C838.428 58.2422 843.311 52.2656 849.795 48.125C856.358 43.9062 864.327 41.7969 873.702 41.7969C882.842 41.7969 890.694 43.8281 897.256 47.8906C903.819 51.875 908.858 57.5391 912.373 64.8828C915.967 72.2266 917.764 80.9766 917.764 91.1328V170H883.545V98.1641C883.545 89.4141 881.436 82.5781 877.217 77.6562C873.077 72.6562 867.1 70.1562 859.287 70.1562C854.287 70.1562 849.912 71.3672 846.162 73.7891C842.491 76.1328 839.6 79.4141 837.491 83.6328C835.459 87.7734 834.444 92.5781 834.444 98.0469V170H800.225ZM975.903 170V0.898438H1011.29V69.5703H1087.47V0.898438H1122.86V170H1087.47V98.75H1011.29V170H975.903ZM1183.62 172.578C1174.41 172.578 1166.55 170.703 1160.07 166.953C1153.66 163.125 1148.74 157.695 1145.3 150.664C1141.95 143.633 1140.27 135.234 1140.27 125.469V44.375H1174.48V118.32C1174.48 126.523 1176.4 132.891 1180.23 137.422C1184.13 141.953 1189.91 144.219 1197.57 144.219C1201.4 144.219 1204.84 143.555 1207.88 142.227C1211.01 140.898 1213.66 139.023 1215.85 136.602C1218.04 134.102 1219.72 131.172 1220.89 127.812C1222.06 124.375 1222.65 120.625 1222.65 116.562V44.375H1256.87V170H1222.65V149.258H1221.95C1219.76 154.023 1216.87 158.164 1213.27 161.68C1209.76 165.195 1205.5 167.891 1200.5 169.766C1195.58 171.641 1189.95 172.578 1183.62 172.578ZM1346.35 172.578C1340.33 172.578 1334.82 171.602 1329.82 169.648C1324.82 167.695 1320.45 164.961 1316.7 161.445C1312.95 157.852 1309.94 153.555 1307.68 148.555H1306.97V170H1272.75V0.898438H1306.97V66.1719H1307.68C1310.02 61.0938 1313.07 56.7578 1316.82 53.1641C1320.57 49.4922 1324.94 46.6797 1329.94 44.7266C1335.02 42.7734 1340.53 41.7969 1346.46 41.7969C1357.01 41.7969 1366.07 44.4141 1373.65 49.6484C1381.31 54.8047 1387.21 62.2656 1391.35 72.0312C1395.49 81.7188 1397.56 93.3984 1397.56 107.07V107.188C1397.56 120.781 1395.49 132.461 1391.35 142.227C1387.21 151.992 1381.31 159.492 1373.65 164.727C1366 169.961 1356.89 172.578 1346.35 172.578ZM1334.98 144.219C1340.68 144.219 1345.6 142.734 1349.75 139.766C1353.89 136.719 1357.09 132.422 1359.35 126.875C1361.62 121.328 1362.75 114.766 1362.75 107.188V107.07C1362.75 99.4141 1361.62 92.8516 1359.35 87.3828C1357.09 81.8359 1353.85 77.5781 1349.63 74.6094C1345.49 71.6406 1340.6 70.1562 1334.98 70.1562C1329.43 70.1562 1324.55 71.6797 1320.33 74.7266C1316.19 77.6953 1312.91 81.9531 1310.49 87.5C1308.14 92.9688 1306.97 99.4922 1306.97 107.07V107.188C1306.97 114.766 1308.14 121.328 1310.49 126.875C1312.83 132.422 1316.11 136.719 1320.33 139.766C1324.55 142.734 1329.43 144.219 1334.98 144.219Z" fill="url(#paint0_linear_1204_45)"/>
</g>
<defs>
<filter id="filter0_i_1204_45" x="0.429688" y="0.898438" width="1401.13" height="175.68" filterUnits="userSpaceOnUse" color-interpolation-filters="sRGB">
<feFlood flood-opacity="0" result="BackgroundImageFix"/>
<feBlend mode="normal" in="SourceGraphic" in2="BackgroundImageFix" result="shape"/>
<feColorMatrix in="SourceAlpha" type="matrix" values="0 0 0 0 0 0 0 0 0 0 0 0 0 0 0 0 0 0 127 0" result="hardAlpha"/>
<feOffset dx="4" dy="4"/>
<feGaussianBlur stdDeviation="5"/>
<feComposite in2="hardAlpha" operator="arithmetic" k2="-1" k3="1"/>
<feColorMatrix type="matrix" values="0 0 0 0 1 0 0 0 0 1 0 0 0 0 1 0 0 0 1 0"/>
<feBlend mode="normal" in2="shape" result="effect1_innerShadow_1204_45"/>
</filter>
<linearGradient id="paint0_linear_1204_45" x1="697.5" y1="-58" x2="697.5" y2="228" gradientUnits="userSpaceOnUse">
<stop stop-color="#AEAEAE"/>
<stop offset="0.485577" stop-color="white"/>
<stop offset="1" stop-color="#A9A9A9"/>
</linearGradient>
</defs>
</svg>
