<svg width="400" height="82" viewBox="0 0 400 82" fill="none" xmlns="http://www.w3.org/2000/svg">
<rect y="0.844543" width="400" height="80.3109" rx="38.8601" fill="url(#paint0_linear_1207_45)"/>
<g filter="url(#filter0_i_1207_45)">
<path d="M22.6025 63.1658V57.2907L44.4926 27.736V27.5571H23.1095V20.1311H55.2289V25.9765L33.4283 55.5609V55.7399H55.8254V63.1658H22.6025ZM73.557 63.8219C70.3162 63.8219 67.5129 63.1559 65.1469 61.8238C62.7809 60.4917 60.9518 58.583 59.6594 56.0978C58.3671 53.6125 57.7209 50.6401 57.7209 47.1807V47.121C57.7209 43.6814 58.3771 40.7289 59.6893 38.2636C61.0015 35.7783 62.8406 33.8696 65.2065 32.5375C67.5725 31.2054 70.346 30.5394 73.5272 30.5394C76.7282 30.5394 79.5117 31.2054 81.8776 32.5375C84.2635 33.8498 86.1125 35.7485 87.4247 38.2337C88.7369 40.6991 89.3931 43.6615 89.3931 47.121V47.1807C89.3931 50.66 88.7369 53.6423 87.4247 56.1276C86.1324 58.6128 84.3032 60.5215 81.9373 61.8536C79.5713 63.1658 76.7779 63.8219 73.557 63.8219ZM73.5868 56.9925C74.9984 56.9925 76.2212 56.6147 77.2551 55.8592C78.3088 55.0838 79.114 53.9704 79.6707 52.519C80.2473 51.0477 80.5356 49.2683 80.5356 47.1807V47.121C80.5356 45.0533 80.2473 43.2937 79.6707 41.8423C79.0941 40.3909 78.279 39.2875 77.2252 38.532C76.1715 37.7566 74.9388 37.3689 73.5272 37.3689C72.1354 37.3689 70.9127 37.7566 69.8589 38.532C68.8251 39.2875 68.0198 40.3909 67.4433 41.8423C66.8667 43.2937 66.5784 45.0533 66.5784 47.121V47.1807C66.5784 49.2683 66.8568 51.0477 67.4134 52.519C67.99 53.9704 68.8052 55.0838 69.8589 55.8592C70.9127 56.6147 72.1553 56.9925 73.5868 56.9925ZM106.618 63.8219C103.357 63.8219 100.554 63.1559 98.2076 61.8238C95.8615 60.4718 94.0522 58.5532 92.7798 56.0679C91.5272 53.5827 90.9009 50.6401 90.9009 47.2403V47.2105C90.9009 43.8107 91.5272 40.8681 92.7798 38.3829C94.0522 35.8777 95.8317 33.9492 98.1181 32.5972C100.424 31.2253 103.138 30.5394 106.26 30.5394C109.381 30.5394 112.075 31.2054 114.342 32.5375C116.628 33.8498 118.388 35.7087 119.621 38.1145C120.873 40.5202 121.499 43.3335 121.499 46.5544V49.2385H95.1656V43.751H117.384L113.238 48.8806V45.5404C113.238 43.6715 112.95 42.1107 112.374 40.8582C111.797 39.5857 110.992 38.6314 109.958 37.9952C108.944 37.3589 107.761 37.0408 106.409 37.0408C105.057 37.0408 103.854 37.3689 102.8 38.025C101.766 38.6811 100.951 39.6454 100.355 40.9178C99.7782 42.1704 99.4899 43.7112 99.4899 45.5404V48.9104C99.4899 50.6799 99.7782 52.1909 100.355 53.4435C100.951 54.6961 101.796 55.6604 102.89 56.3363C103.983 56.9925 105.286 57.3205 106.797 57.3205C107.99 57.3205 109.023 57.1316 109.898 56.7539C110.773 56.3761 111.489 55.8989 112.045 55.3224C112.602 54.7458 112.98 54.1593 113.179 53.5628L113.238 53.3839H121.231L121.141 53.7119C120.903 54.885 120.436 56.0679 119.74 57.2609C119.044 58.4538 118.1 59.5473 116.907 60.5414C115.734 61.5355 114.292 62.3308 112.582 62.9272C110.892 63.5237 108.904 63.8219 106.618 63.8219ZM145.481 63.1658V27.5571H133.044V20.1311H166.953V27.5571H154.487V63.1658H145.481ZM176.931 63.8219C173.67 63.8219 170.867 63.1559 168.521 61.8238C166.175 60.4718 164.365 58.5532 163.093 56.0679C161.84 53.5827 161.214 50.6401 161.214 47.2403V47.2105C161.214 43.8107 161.84 40.8681 163.093 38.3829C164.365 35.8777 166.145 33.9492 168.431 32.5972C170.738 31.2253 173.452 30.5394 176.573 30.5394C179.695 30.5394 182.389 31.2054 184.655 32.5375C186.942 33.8498 188.701 35.7087 189.934 38.1145C191.186 40.5202 191.813 43.3335 191.813 46.5544V49.2385H165.479V43.751H187.697L183.552 48.8806V45.5404C183.552 43.6715 183.263 42.1107 182.687 40.8582C182.11 39.5857 181.305 38.6314 180.271 37.9952C179.257 37.3589 178.074 37.0408 176.722 37.0408C175.37 37.0408 174.167 37.3689 173.114 38.025C172.08 38.6811 171.265 39.6454 170.668 40.9178C170.091 42.1704 169.803 43.7112 169.803 45.5404V48.9104C169.803 50.6799 170.091 52.1909 170.668 53.4435C171.265 54.6961 172.11 55.6604 173.203 56.3363C174.297 56.9925 175.599 57.3205 177.11 57.3205C178.303 57.3205 179.337 57.1316 180.211 56.7539C181.086 56.3761 181.802 55.8989 182.359 55.3224C182.915 54.7458 183.293 54.1593 183.492 53.5628L183.552 53.3839H191.544L191.455 53.7119C191.216 54.885 190.749 56.0679 190.053 57.2609C189.357 58.4538 188.413 59.5473 187.22 60.5414C186.047 61.5355 184.605 62.3308 182.896 62.9272C181.206 63.5237 179.217 63.8219 176.931 63.8219ZM209.097 63.8219C205.856 63.8219 203.053 63.146 200.687 61.794C198.321 60.442 196.502 58.5234 195.229 56.0381C193.957 53.533 193.32 50.5706 193.32 47.1508V47.121C193.32 43.7013 193.957 40.7588 195.229 38.2934C196.521 35.8081 198.341 33.8995 200.687 32.5674C203.053 31.2154 205.826 30.5394 209.007 30.5394C211.91 30.5394 214.425 31.0861 216.553 32.1797C218.68 33.2533 220.34 34.7146 221.533 36.5637C222.746 38.4127 223.412 40.4904 223.531 42.7967V43.0054H215.449L215.39 42.737C215.131 41.2061 214.475 39.9337 213.421 38.9197C212.367 37.8858 210.936 37.3689 209.127 37.3689C207.715 37.3689 206.482 37.7665 205.429 38.5618C204.395 39.3372 203.59 40.4605 203.013 41.9318C202.456 43.3832 202.178 45.1229 202.178 47.1508V47.1807C202.178 49.2683 202.456 51.0477 203.013 52.519C203.59 53.9704 204.395 55.0838 205.429 55.8592C206.482 56.6147 207.725 56.9925 209.157 56.9925C210.906 56.9925 212.308 56.5053 213.362 55.5311C214.435 54.537 215.121 53.2348 215.419 51.6243L215.449 51.3559H223.561V51.5348C223.422 53.861 222.746 55.9486 221.533 57.7977C220.32 59.6467 218.65 61.118 216.523 62.2115C214.415 63.2851 211.94 63.8219 209.097 63.8219ZM226.143 63.1658V20.1311H234.851V36.7128H235.03C235.865 34.7246 237.108 33.2036 238.758 32.1498C240.428 31.0762 242.456 30.5394 244.842 30.5394C247.168 30.5394 249.166 31.0563 250.836 32.0902C252.506 33.1042 253.789 34.5456 254.683 36.4145C255.598 38.2835 256.055 40.5102 256.055 43.0949V63.1658H247.347V44.8843C247.347 42.6575 246.81 40.9178 245.736 39.6653C244.683 38.3928 243.162 37.7566 241.173 37.7566C239.901 37.7566 238.788 38.0647 237.833 38.6811C236.899 39.2776 236.163 40.1126 235.626 41.1862C235.109 42.24 234.851 43.4627 234.851 44.8545V63.1658H226.143ZM270.851 63.1658V20.1311H279.857V37.6075H299.242V20.1311H308.249V63.1658H299.242V45.0334H279.857V63.1658H270.851ZM323.714 63.8219C321.368 63.8219 319.37 63.3448 317.72 62.3904C316.089 61.4162 314.837 60.0344 313.962 58.245C313.107 56.4556 312.68 54.3183 312.68 51.8331V31.1955H321.388V50.0139C321.388 52.1015 321.875 53.7219 322.849 54.875C323.843 56.0282 325.315 56.6048 327.263 56.6048C328.237 56.6048 329.112 56.4358 329.887 56.0978C330.683 55.7598 331.359 55.2826 331.915 54.6663C332.472 54.03 332.9 53.2845 333.198 52.4295C333.496 51.5547 333.645 50.6004 333.645 49.5665V31.1955H342.354V63.1658H333.645V57.8871H333.466C332.91 59.1 332.174 60.1537 331.259 61.0484C330.365 61.9431 329.281 62.629 328.009 63.1062C326.756 63.5834 325.325 63.8219 323.714 63.8219ZM365.125 63.8219C363.594 63.8219 362.193 63.5734 360.92 63.0764C359.648 62.5793 358.534 61.8834 357.58 60.9887C356.626 60.0742 355.86 58.9807 355.284 57.7082H355.105V63.1658H346.396V20.1311H355.105V36.7426H355.284C355.88 35.4503 356.655 34.3468 357.61 33.4322C358.564 32.4978 359.678 31.782 360.95 31.285C362.242 30.7879 363.644 30.5394 365.155 30.5394C367.839 30.5394 370.145 31.2054 372.074 32.5375C374.022 33.8498 375.524 35.7485 376.577 38.2337C377.631 40.6991 378.158 43.6715 378.158 47.1508V47.1807C378.158 50.6401 377.631 53.6125 376.577 56.0978C375.524 58.583 374.022 60.4917 372.074 61.8238C370.126 63.1559 367.809 63.8219 365.125 63.8219ZM362.232 56.6048C363.684 56.6048 364.936 56.227 365.99 55.4715C367.044 54.6961 367.859 53.6026 368.436 52.1909C369.012 50.7793 369.3 49.1092 369.3 47.1807V47.1508C369.3 45.2024 369.012 43.5323 368.436 42.1406C367.859 40.7289 367.034 39.6454 365.96 38.8899C364.907 38.1343 363.664 37.7566 362.232 37.7566C360.821 37.7566 359.578 38.1443 358.505 38.9197C357.451 39.6752 356.616 40.7588 355.999 42.1704C355.403 43.5621 355.105 45.2223 355.105 47.1508V47.1807C355.105 49.1092 355.403 50.7793 355.999 52.1909C356.596 53.6026 357.431 54.6961 358.505 55.4715C359.578 56.227 360.821 56.6048 362.232 56.6048Z" fill="white"/>
</g>
<defs>
<filter id="filter0_i_1207_45" x="22.6025" y="20.1312" width="356.573" height="44.7088" filterUnits="userSpaceOnUse" color-interpolation-filters="sRGB">
<feFlood flood-opacity="0" result="BackgroundImageFix"/>
<feBlend mode="normal" in="SourceGraphic" in2="BackgroundImageFix" result="shape"/>
<feColorMatrix in="SourceAlpha" type="matrix" values="0 0 0 0 0 0 0 0 0 0 0 0 0 0 0 0 0 0 127 0" result="hardAlpha"/>
<feOffset dx="1.01796" dy="1.01796"/>
<feGaussianBlur stdDeviation="1.27245"/>
<feComposite in2="hardAlpha" operator="arithmetic" k2="-1" k3="1"/>
<feColorMatrix type="matrix" values="0 0 0 0 0.653846 0 0 0 0 0.653846 0 0 0 0 0.653846 0 0 0 1 0"/>
<feBlend mode="normal" in2="shape" result="effect1_innerShadow_1207_45"/>
</filter>
<linearGradient id="paint0_linear_1207_45" x1="0" y1="81.1554" x2="400.032" y2="7.88973" gradientUnits="userSpaceOnUse">
<stop stop-color="#081D28"/>
<stop offset="0.199203" stop-color="#082331"/>
<stop offset="0.521094" stop-color="#083E58"/>
<stop offset="0.748552" stop-color="#063651"/>
<stop offset="0.997361" stop-color="#072D42"/>
</linearGradient>
</defs>
</svg>
