<svg width="301" height="74" viewBox="0 0 301 74" fill="none" xmlns="http://www.w3.org/2000/svg">
<path d="M32.3502 53.4551H9.9591V49.3185L24.3857 28.6356H10.3501V23.3671H31.9591V27.4831L17.5531 48.1866H32.3502V53.4551ZM57.5607 41.9097C57.5607 43.8305 57.3 45.5318 56.7787 47.0135C56.271 48.4953 55.5233 49.7507 54.5354 50.7797C53.5613 51.795 52.3814 52.5633 50.9957 53.0846C49.6237 53.606 48.0733 53.8667 46.3446 53.8667C44.7256 53.8667 43.237 53.606 41.8787 53.0846C40.5342 52.5633 39.3611 51.795 38.3595 50.7797C37.3717 49.7507 36.6034 48.4953 36.0546 47.0135C35.5195 45.5318 35.252 43.8305 35.252 41.9097C35.252 39.3578 35.7047 37.1969 36.6102 35.427C37.5158 33.6571 38.8054 32.3125 40.4793 31.3933C42.1531 30.4741 44.1494 30.0144 46.4681 30.0144C48.6221 30.0144 50.5292 30.4741 52.1893 31.3933C53.8632 32.3125 55.1734 33.6571 56.1201 35.427C57.0805 37.1969 57.5607 39.3578 57.5607 41.9097ZM41.6523 41.9097C41.6523 43.4189 41.817 44.688 42.1463 45.717C42.4755 46.746 42.99 47.5212 43.6898 48.0425C44.3895 48.5639 45.3019 48.8246 46.4269 48.8246C47.5382 48.8246 48.4369 48.5639 49.1229 48.0425C49.8226 47.5212 50.3303 46.746 50.6458 45.717C50.9751 44.688 51.1397 43.4189 51.1397 41.9097C51.1397 40.3868 50.9751 39.1245 50.6458 38.123C50.3303 37.1077 49.8226 36.3462 49.1229 35.8386C48.4232 35.3309 47.5108 35.0771 46.3857 35.0771C44.7256 35.0771 43.5183 35.6465 42.7637 36.7853C42.0228 37.924 41.6523 39.6322 41.6523 41.9097ZM72.2343 30.0144C74.3609 30.0144 76.1925 30.426 77.7291 31.2492C79.2658 32.0587 80.4525 33.2386 81.2895 34.789C82.1264 36.3394 82.5448 38.2327 82.5448 40.4691V43.5149H67.7067C67.7753 45.2848 68.3035 46.6774 69.2913 47.6927C70.2929 48.6942 71.6786 49.195 73.4485 49.195C74.9165 49.195 76.2611 49.0441 77.4822 48.7423C78.7032 48.4404 79.9586 47.9877 81.2483 47.384V52.2409C80.1095 52.8034 78.9159 53.215 77.6674 53.4757C76.4326 53.7363 74.9302 53.8667 73.1604 53.8667C70.8554 53.8667 68.8111 53.4414 67.0275 52.5907C65.2576 51.7401 63.865 50.4435 62.8498 48.7011C61.8482 46.9587 61.3474 44.7634 61.3474 42.1155C61.3474 39.4264 61.8002 37.19 62.7057 35.4064C63.6249 33.6091 64.9009 32.2645 66.5336 31.3727C68.1663 30.4672 70.0665 30.0144 72.2343 30.0144ZM72.2754 34.4803C71.0543 34.4803 70.0391 34.8713 69.2296 35.6534C68.4338 36.4354 67.9742 37.6633 67.8507 39.3372H76.659C76.6452 38.4042 76.4737 37.5742 76.1445 36.847C75.8289 36.1198 75.3487 35.5436 74.7039 35.1183C74.0727 34.693 73.2633 34.4803 72.2754 34.4803ZM110.698 53.4551H104.319V28.6767H96.1482V23.3671H118.869V28.6767H110.698V53.4551ZM132.493 30.0144C134.619 30.0144 136.451 30.426 137.987 31.2492C139.524 32.0587 140.711 33.2386 141.548 34.789C142.385 36.3394 142.803 38.2327 142.803 40.4691V43.5149H127.965C128.034 45.2848 128.562 46.6774 129.55 47.6927C130.551 48.6942 131.937 49.195 133.707 49.195C135.175 49.195 136.519 49.0441 137.74 48.7423C138.962 48.4404 140.217 47.9877 141.507 47.384V52.2409C140.368 52.8034 139.174 53.215 137.926 53.4757C136.691 53.7363 135.189 53.8667 133.419 53.8667C131.114 53.8667 129.069 53.4414 127.286 52.5907C125.516 51.7401 124.123 50.4435 123.108 48.7011C122.107 46.9587 121.606 44.7634 121.606 42.1155C121.606 39.4264 122.058 37.19 122.964 35.4064C123.883 33.6091 125.159 32.2645 126.792 31.3727C128.425 30.4672 130.325 30.0144 132.493 30.0144ZM132.534 34.4803C131.313 34.4803 130.297 34.8713 129.488 35.6534C128.692 36.4354 128.233 37.6633 128.109 39.3372H136.917C136.904 38.4042 136.732 37.5742 136.403 36.847C136.087 36.1198 135.607 35.5436 134.962 35.1183C134.331 34.693 133.522 34.4803 132.534 34.4803ZM157.25 53.8667C154.973 53.8667 153.031 53.4551 151.426 52.6319C149.821 51.795 148.6 50.5053 147.763 48.7628C146.926 47.0204 146.508 44.7909 146.508 42.0743C146.508 39.2617 146.981 36.9705 147.928 35.2006C148.888 33.417 150.212 32.1067 151.9 31.2698C153.601 30.4329 155.57 30.0144 157.806 30.0144C159.398 30.0144 160.77 30.1722 161.922 30.4878C163.088 30.7896 164.103 31.1532 164.968 31.5785L163.116 36.4354C162.128 36.0375 161.209 35.7151 160.358 35.4681C159.507 35.2075 158.657 35.0771 157.806 35.0771C156.708 35.0771 155.796 35.3378 155.069 35.8592C154.342 36.3668 153.8 37.1351 153.443 38.1641C153.086 39.1931 152.908 40.4828 152.908 42.0332C152.908 43.5561 153.1 44.8183 153.484 45.8199C153.868 46.8215 154.424 47.5692 155.151 48.0631C155.878 48.5433 156.763 48.7834 157.806 48.7834C159.109 48.7834 160.269 48.6119 161.284 48.2689C162.299 47.9122 163.287 47.4183 164.248 46.7872V52.1585C163.287 52.7622 162.279 53.1944 161.222 53.4551C160.18 53.7295 158.856 53.8667 157.25 53.8667ZM175.875 21.4326V27.9564C175.875 29.0952 175.834 30.1791 175.752 31.2081C175.683 32.2371 175.628 32.9642 175.587 33.3896H175.916C176.41 32.5938 176.993 31.949 177.666 31.455C178.352 30.9611 179.106 30.5975 179.93 30.3643C180.753 30.1311 181.638 30.0144 182.584 30.0144C184.244 30.0144 185.692 30.3094 186.927 30.8994C188.162 31.4756 189.122 32.388 189.808 33.6365C190.494 34.8713 190.837 36.4766 190.837 38.4522V53.4551H184.56V40.0163C184.56 38.3699 184.258 37.1283 183.655 36.2913C183.051 35.4544 182.118 35.036 180.856 35.036C179.593 35.036 178.599 35.3309 177.872 35.9209C177.144 36.4971 176.63 37.3546 176.328 38.4934C176.026 39.6184 175.875 40.9973 175.875 42.63V53.4551H169.598V21.4326H175.875ZM233.396 53.4551H227.037V40.4691H215.121V53.4551H208.742V23.3671H215.121V35.1594H227.037V23.3671H233.396V53.4551ZM261.632 30.4466V53.4551H256.816L255.973 50.5121H255.643C255.15 51.2942 254.532 51.9322 253.791 52.4261C253.05 52.92 252.234 53.2836 251.342 53.5168C250.45 53.7501 249.524 53.8667 248.564 53.8667C246.917 53.8667 245.484 53.5786 244.263 53.0023C243.042 52.4124 242.088 51.5 241.402 50.2652C240.73 49.0304 240.394 47.4251 240.394 45.4494V30.4466H246.671V43.8854C246.671 45.5318 246.966 46.7734 247.555 47.6104C248.145 48.4473 249.085 48.8657 250.375 48.8657C251.651 48.8657 252.652 48.5776 253.38 48.0014C254.107 47.4114 254.614 46.5539 254.903 45.4289C255.204 44.2901 255.355 42.9044 255.355 41.2717V30.4466H261.632ZM274.495 21.4326V28.8825C274.495 29.7469 274.467 30.6044 274.412 31.455C274.371 32.3057 274.316 32.9642 274.248 33.4307H274.495C275.098 32.484 275.922 31.6814 276.964 31.0229C278.007 30.3506 279.358 30.0144 281.019 30.0144C283.598 30.0144 285.69 31.0229 287.296 33.0397C288.901 35.0565 289.703 38.0132 289.703 41.9097C289.703 44.5302 289.333 46.7323 288.592 48.5159C287.851 50.2858 286.815 51.6235 285.484 52.529C284.154 53.4208 282.61 53.8667 280.854 53.8667C279.166 53.8667 277.836 53.5648 276.861 52.9612C275.887 52.3575 275.098 51.6783 274.495 50.9237H274.063L273.013 53.4551H268.218V21.4326H274.495ZM279.002 35.036C277.904 35.036 277.033 35.2623 276.388 35.7151C275.743 36.1679 275.27 36.847 274.968 37.7525C274.68 38.658 274.522 39.8037 274.495 41.1894V41.8685C274.495 44.1049 274.824 45.8199 275.483 47.0135C276.141 48.1935 277.342 48.7834 279.084 48.7834C280.374 48.7834 281.396 48.1866 282.15 46.993C282.919 45.7993 283.303 44.0774 283.303 41.8274C283.303 39.5773 282.919 37.8829 282.15 36.7441C281.382 35.6053 280.333 35.036 279.002 35.036Z" fill="white"/>
</svg>
