<svg width="350" height="71" viewBox="0 0 350 71" fill="none" xmlns="http://www.w3.org/2000/svg">
<rect y="0.248718" width="350" height="70.272" rx="26.25" fill="url(#paint0_linear_1207_45)"/>
<path d="M21.4174 52.2597V47.4622L39.2925 23.3283V23.1822H21.8314V17.1183H48.0596V21.8915L30.2576 46.0497V46.1958H48.5467V52.2597H21.4174ZM64.5223 52.7955C61.8759 52.7955 59.5867 52.2516 57.6547 51.1638C55.7227 50.076 54.2291 48.5175 53.1738 46.488C52.1185 44.4586 51.5908 42.0314 51.5908 39.2065V39.1578C51.5908 36.3491 52.1266 33.9381 53.1981 31.9249C54.2697 29.8955 55.7714 28.3369 57.7034 27.2491C59.6354 26.1614 61.9003 25.6175 64.4979 25.6175C67.1118 25.6175 69.3848 26.1614 71.3168 27.2491C73.265 28.3207 74.7749 29.8712 75.8464 31.9006C76.918 33.9138 77.4537 36.3328 77.4537 39.1578V39.2065C77.4537 42.0477 76.918 44.483 75.8464 46.5124C74.7911 48.5418 73.2975 50.1004 71.3655 51.1882C69.4335 52.2597 67.1524 52.7955 64.5223 52.7955ZM64.5466 47.2186C65.6993 47.2186 66.6978 46.9102 67.5421 46.2932C68.4025 45.66 69.0601 44.7509 69.5146 43.5657C69.9855 42.3643 70.2209 40.9112 70.2209 39.2065V39.1578C70.2209 37.4693 69.9855 36.0325 69.5146 34.8473C69.0438 33.6621 68.3782 32.761 67.5177 32.1441C66.6572 31.5109 65.6506 31.1943 64.4979 31.1943C63.3615 31.1943 62.363 31.5109 61.5025 32.1441C60.6583 32.761 60.0007 33.6621 59.5299 34.8473C59.0591 36.0325 58.8237 37.4693 58.8237 39.1578V39.2065C58.8237 40.9112 59.051 42.3643 59.5056 43.5657C59.9764 44.7509 60.642 45.66 61.5025 46.2932C62.363 46.9102 63.3777 47.2186 64.5466 47.2186ZM93.0153 52.7955C90.3527 52.7955 88.0635 52.2516 86.1478 51.1638C84.232 50.0598 82.7546 48.4931 81.7155 46.4637C80.6927 44.4343 80.1813 42.0314 80.1813 39.2552V39.2308C80.1813 36.4546 80.6927 34.0518 81.7155 32.0223C82.7546 29.9767 84.2076 28.4019 86.0747 27.2979C87.958 26.1776 90.1741 25.6175 92.7231 25.6175C95.272 25.6175 97.4719 26.1614 99.3228 27.2491C101.19 28.3207 102.627 29.8387 103.633 31.8032C104.656 33.7676 105.167 36.0649 105.167 38.6951V40.8868H83.6638V36.4059H101.807L98.4217 40.5946V37.8671C98.4217 36.3409 98.1863 35.0665 97.7155 34.0436C97.2446 33.0046 96.5871 32.2253 95.7429 31.7057C94.9149 31.1862 93.9489 30.9265 92.8448 30.9265C91.7408 30.9265 90.7586 31.1943 89.8981 31.7301C89.0539 32.2659 88.3882 33.0533 87.9012 34.0923C87.4304 35.1152 87.1949 36.3734 87.1949 37.8671V40.619C87.1949 42.0639 87.4304 43.2978 87.9012 44.3206C88.3882 45.3434 89.0782 46.1309 89.9712 46.6829C90.8641 47.2186 91.9276 47.4865 93.1614 47.4865C94.1356 47.4865 94.9798 47.3323 95.6942 47.0238C96.4085 46.7153 96.993 46.3257 97.4476 45.8549C97.9022 45.384 98.2106 44.9051 98.373 44.418L98.4217 44.2719H104.948L104.875 44.5398C104.68 45.4977 104.299 46.4637 103.731 47.4378C103.162 48.4119 102.391 49.3049 101.417 50.1166C100.459 50.9284 99.2822 51.5778 97.8859 52.0649C96.5059 52.5519 94.8824 52.7955 93.0153 52.7955ZM127.743 52.2597V23.1822H117.588V17.1183H145.277V23.1822H135.097V52.2597H127.743ZM154.921 52.7955C152.258 52.7955 149.969 52.2516 148.053 51.1638C146.137 50.0598 144.66 48.4931 143.621 46.4637C142.598 44.4343 142.087 42.0314 142.087 39.2552V39.2308C142.087 36.4546 142.598 34.0518 143.621 32.0223C144.66 29.9767 146.113 28.4019 147.98 27.2979C149.863 26.1776 152.08 25.6175 154.628 25.6175C157.177 25.6175 159.377 26.1614 161.228 27.2491C163.095 28.3207 164.532 29.8387 165.539 31.8032C166.561 33.7676 167.073 36.0649 167.073 38.6951V40.8868H145.569V36.4059H163.712L160.327 40.5946V37.8671C160.327 36.3409 160.092 35.0665 159.621 34.0436C159.15 33.0046 158.492 32.2253 157.648 31.7057C156.82 31.1862 155.854 30.9265 154.75 30.9265C153.646 30.9265 152.664 31.1943 151.804 31.7301C150.959 32.2659 150.294 33.0533 149.807 34.0923C149.336 35.1152 149.1 36.3734 149.1 37.8671V40.619C149.1 42.0639 149.336 43.2978 149.807 44.3206C150.294 45.3434 150.984 46.1309 151.877 46.6829C152.77 47.2186 153.833 47.4865 155.067 47.4865C156.041 47.4865 156.885 47.3323 157.6 47.0238C158.314 46.7153 158.898 46.3257 159.353 45.8549C159.808 45.384 160.116 44.9051 160.278 44.418L160.327 44.2719H166.854L166.781 44.5398C166.586 45.4977 166.204 46.4637 165.636 47.4378C165.068 48.4119 164.297 49.3049 163.323 50.1166C162.365 50.9284 161.188 51.5778 159.791 52.0649C158.411 52.5519 156.788 52.7955 154.921 52.7955ZM182.683 52.7955C180.037 52.7955 177.748 52.2435 175.816 51.1395C173.884 50.0355 172.398 48.4688 171.359 46.4393C170.32 44.3937 169.8 41.9746 169.8 39.1821V39.1578C169.8 36.3653 170.32 33.9625 171.359 31.9493C172.414 29.9199 173.9 28.3613 175.816 27.2735C177.748 26.1695 180.012 25.6175 182.61 25.6175C184.98 25.6175 187.034 26.064 188.771 26.9569C190.509 27.8336 191.864 29.0269 192.838 30.5368C193.829 32.0467 194.373 33.7433 194.47 35.6266V35.7971H187.87L187.822 35.5779C187.611 34.3278 187.075 33.2887 186.214 32.4607C185.354 31.6165 184.185 31.1943 182.708 31.1943C181.555 31.1943 180.548 31.519 179.688 32.1685C178.844 32.8016 178.186 33.7189 177.715 34.9203C177.261 36.1055 177.033 37.5261 177.033 39.1821V39.2065C177.033 40.9112 177.261 42.3643 177.715 43.5657C178.186 44.7509 178.844 45.66 179.688 46.2932C180.548 46.9102 181.563 47.2186 182.732 47.2186C184.161 47.2186 185.305 46.8209 186.166 46.0253C187.042 45.2136 187.602 44.1501 187.846 42.8351L187.87 42.6159H194.494V42.762C194.381 44.6616 193.829 46.3663 192.838 47.8762C191.848 49.386 190.484 50.5875 188.747 51.4804C187.026 52.3571 185.005 52.7955 182.683 52.7955ZM198.099 52.2597V17.1183H205.21V30.6586H205.356C206.038 29.035 207.052 27.793 208.4 26.9326C209.764 26.0558 211.42 25.6175 213.368 25.6175C215.268 25.6175 216.899 26.0396 218.263 26.8839C219.627 27.7119 220.674 28.8889 221.404 30.415C222.151 31.9412 222.525 33.7595 222.525 35.8701V52.2597H215.414V37.3313C215.414 35.5129 214.975 34.0923 214.099 33.0695C213.238 32.0305 211.996 31.5109 210.373 31.5109C209.333 31.5109 208.424 31.7626 207.645 32.2659C206.882 32.7529 206.281 33.4348 205.843 34.3115C205.421 35.172 205.21 36.1705 205.21 37.3069V52.2597H198.099ZM237.599 52.2597V17.1183H244.954V31.3892H260.783V17.1183H268.138V52.2597H260.783V37.4531H244.954V52.2597H237.599ZM282.263 52.7955C280.347 52.7955 278.715 52.4058 277.368 51.6265C276.036 50.831 275.014 49.7026 274.299 48.2415C273.601 46.7803 273.252 45.035 273.252 43.0056V26.1533H280.363V41.52C280.363 43.2247 280.761 44.5479 281.556 45.4896C282.368 46.4312 283.57 46.902 285.161 46.902C285.956 46.902 286.671 46.764 287.304 46.488C287.953 46.212 288.505 45.8224 288.96 45.3191C289.414 44.7996 289.763 44.1907 290.007 43.4926C290.25 42.7783 290.372 41.999 290.372 41.1547V26.1533H297.483V52.2597H290.372V47.9492H290.226C289.772 48.9396 289.171 49.8 288.424 50.5306C287.693 51.2612 286.809 51.8214 285.77 52.211C284.747 52.6006 283.578 52.7955 282.263 52.7955ZM317.575 52.7955C316.324 52.7955 315.18 52.5925 314.141 52.1866C313.102 51.7808 312.193 51.2125 311.413 50.4819C310.634 49.7351 310.009 48.8422 309.538 47.8031H309.392V52.2597H302.281V17.1183H309.392V30.6829H309.538C310.025 29.6276 310.658 28.7266 311.438 27.9797C312.217 27.2167 313.126 26.6322 314.165 26.2263C315.22 25.8204 316.365 25.6175 317.599 25.6175C319.791 25.6175 321.674 26.1614 323.249 27.2491C324.84 28.3207 326.066 29.8712 326.926 31.9006C327.787 33.9138 328.217 36.3409 328.217 39.1821V39.2065C328.217 42.0314 327.787 44.4586 326.926 46.488C326.066 48.5175 324.84 50.076 323.249 51.1638C321.658 52.2516 319.766 52.7955 317.575 52.7955ZM315.212 46.902C316.398 46.902 317.42 46.5936 318.281 45.9766C319.141 45.3434 319.807 44.4505 320.278 43.2978C320.749 42.1451 320.984 40.7813 320.984 39.2065V39.1821C320.984 37.5911 320.749 36.2273 320.278 35.0908C319.807 33.9381 319.133 33.0533 318.256 32.4363C317.396 31.8194 316.381 31.5109 315.212 31.5109C314.06 31.5109 313.045 31.8275 312.168 32.4607C311.308 33.0776 310.626 33.9625 310.123 35.1152C309.635 36.2516 309.392 37.6073 309.392 39.1821V39.2065C309.392 40.7813 309.635 42.1451 310.123 43.2978C310.61 44.4505 311.292 45.3434 312.168 45.9766C313.045 46.5936 314.06 46.902 315.212 46.902Z" fill="white"/>
<defs>
<linearGradient id="paint0_linear_1207_45" x1="0" y1="70.5207" x2="350.028" y2="6.41325" gradientUnits="userSpaceOnUse">
<stop stop-color="#081D28"/>
<stop offset="0.199203" stop-color="#082331"/>
<stop offset="0.521094" stop-color="#083E58"/>
<stop offset="0.748552" stop-color="#063651"/>
<stop offset="0.997361" stop-color="#072D42"/>
</linearGradient>
</defs>
</svg>
