<svg width="208" height="48" viewBox="0 0 208 48" fill="none" xmlns="http://www.w3.org/2000/svg">
<path d="M6.66874 33.5209V30.0414L16.6585 17.47L16.7988 17.9751L15.8447 16.7404L16.4901 17.3016H7.06159V13.0364H23.1406V16.5159L13.1228 29.0873L12.9825 28.5541L13.9365 29.8169L13.2911 29.2557H23.0283V33.5209H6.66874ZM33.2627 34.0822C31.8971 34.0822 30.6811 33.8764 29.6148 33.4648C28.5485 33.0533 27.6412 32.4827 26.8929 31.7531C26.1633 31.0235 25.6021 30.1817 25.2092 29.2276C24.835 28.2735 24.648 27.254 24.648 26.1689V25.4955C24.648 24.373 24.8444 23.3254 25.2373 22.3526C25.6488 21.3799 26.2287 20.5287 26.977 19.7991C27.7253 19.0695 28.6326 18.4989 29.699 18.0874C30.7653 17.6758 31.9532 17.47 33.2627 17.47C34.5909 17.47 35.7789 17.6758 36.8265 18.0874C37.8928 18.4989 38.8001 19.0695 39.5484 19.7991C40.2967 20.5287 40.8673 21.3799 41.2601 22.3526C41.6717 23.3254 41.8775 24.373 41.8775 25.4955V26.1689C41.8775 27.254 41.681 28.2735 41.2882 29.2276C40.914 30.1817 40.3528 31.0235 39.6045 31.7531C38.8749 32.4827 37.977 33.0533 36.9107 33.4648C35.8443 33.8764 34.6284 34.0822 33.2627 34.0822ZM33.2627 29.8169C34.0484 29.8169 34.6938 29.6485 35.1989 29.3118C35.7227 28.975 36.1156 28.5074 36.3775 27.9087C36.6394 27.2914 36.7703 26.5992 36.7703 25.8322C36.7703 25.0278 36.63 24.3263 36.3494 23.7276C36.0875 23.1103 35.6947 22.6239 35.1709 22.2685C34.6471 21.913 34.011 21.7353 33.2627 21.7353C32.5144 21.7353 31.8784 21.913 31.3546 22.2685C30.8308 22.6239 30.4286 23.1103 30.1479 23.7276C29.886 24.3263 29.7551 25.0278 29.7551 25.8322C29.7551 26.5992 29.886 27.2914 30.1479 27.9087C30.4098 28.5074 30.8027 28.975 31.3265 29.3118C31.8503 29.6485 32.4957 29.8169 33.2627 29.8169ZM51.9413 34.0822C50.6318 34.0822 49.4719 33.8577 48.4617 33.4087C47.4515 32.9597 46.6003 32.3517 45.9082 31.5847C45.216 30.8177 44.6828 29.9572 44.3087 29.0031C43.9532 28.049 43.7755 27.0669 43.7755 26.0567V25.4955C43.7755 24.4479 43.9532 23.447 44.3087 22.4929C44.6828 21.5202 45.2066 20.6596 45.8801 19.9113C46.5723 19.163 47.4141 18.5737 48.4056 18.1435C49.3971 17.6945 50.5195 17.47 51.7729 17.47C53.4379 17.47 54.8503 17.8442 56.0101 18.5925C57.17 19.3408 58.0586 20.3322 58.6759 21.5669C59.2933 22.7829 59.602 24.1111 59.602 25.5516V27.1791H45.9082V24.4292H56.6555L54.8877 25.6638C54.8877 24.7846 54.7661 24.0457 54.5229 23.447C54.2984 22.8297 53.9523 22.362 53.4846 22.044C53.0357 21.7259 52.4651 21.5669 51.7729 21.5669C51.0995 21.5669 50.5102 21.7259 50.0051 22.044C49.5187 22.3433 49.1445 22.811 48.8826 23.447C48.6207 24.0644 48.4898 24.8501 48.4898 25.8041C48.4898 26.6647 48.6114 27.413 48.8546 28.049C49.0978 28.6664 49.4719 29.1434 49.977 29.4801C50.4821 29.8169 51.1369 29.9852 51.9413 29.9852C52.6522 29.9852 53.2321 29.8636 53.6811 29.6204C54.1488 29.3773 54.4761 29.0499 54.6632 28.6383H59.3213C59.0969 29.6859 58.6479 30.6213 57.9744 31.4444C57.3197 32.2675 56.4778 32.9129 55.4489 33.3806C54.4387 33.8483 53.2695 34.0822 51.9413 34.0822ZM72.3425 33.5209V17.021H77.5619V33.5209H72.3425ZM66.7303 17.5823V13.0364H83.1741V17.5823H66.7303ZM90.8815 34.0822C89.572 34.0822 88.4121 33.8577 87.4019 33.4087C86.3917 32.9597 85.5405 32.3517 84.8484 31.5847C84.1562 30.8177 83.623 29.9572 83.2489 29.0031C82.8934 28.049 82.7157 27.0669 82.7157 26.0567V25.4955C82.7157 24.4479 82.8934 23.447 83.2489 22.4929C83.623 21.5202 84.1468 20.6596 84.8203 19.9113C85.5125 19.163 86.3543 18.5737 87.3458 18.1435C88.3373 17.6945 89.4597 17.47 90.7131 17.47C92.3781 17.47 93.7905 17.8442 94.9503 18.5925C96.1102 19.3408 96.9988 20.3322 97.6161 21.5669C98.2335 22.7829 98.5421 24.1111 98.5421 25.5516V27.1791H84.8484V24.4292H95.5957L93.8279 25.6638C93.8279 24.7846 93.7063 24.0457 93.4631 23.447C93.2386 22.8297 92.8925 22.362 92.4248 22.044C91.9759 21.7259 91.4053 21.5669 90.7131 21.5669C90.0396 21.5669 89.4504 21.7259 88.9453 22.044C88.4589 22.3433 88.0847 22.811 87.8228 23.447C87.5609 24.0644 87.43 24.8501 87.43 25.8041C87.43 26.6647 87.5516 27.413 87.7948 28.049C88.038 28.6664 88.4121 29.1434 88.9172 29.4801C89.4223 29.8169 90.0771 29.9852 90.8815 29.9852C91.5924 29.9852 92.1723 29.8636 92.6213 29.6204C93.0889 29.3773 93.4163 29.0499 93.6034 28.6383H98.2615C98.037 29.6859 97.5881 30.6213 96.9146 31.4444C96.2598 32.2675 95.418 32.9129 94.3891 33.3806C93.3789 33.8483 92.2097 34.0822 90.8815 34.0822ZM108.305 34.0822C106.958 34.0822 105.789 33.867 104.798 33.4368C103.806 32.9878 102.974 32.3891 102.3 31.6408C101.646 30.8926 101.15 30.0414 100.813 29.0873C100.495 28.1332 100.336 27.1417 100.336 26.1128V25.5516C100.336 24.4666 100.504 23.4377 100.841 22.4649C101.197 21.4921 101.711 20.6316 102.385 19.8833C103.058 19.135 103.89 18.5457 104.882 18.1154C105.873 17.6851 107.015 17.47 108.305 17.47C109.727 17.47 110.981 17.7506 112.066 18.3118C113.151 18.8731 114.011 19.6494 114.647 20.6409C115.302 21.6137 115.667 22.7361 115.742 24.0082H110.747C110.691 23.3909 110.457 22.8671 110.045 22.4368C109.652 22.0066 109.072 21.7914 108.305 21.7914C107.651 21.7914 107.108 21.9598 106.678 22.2965C106.266 22.6332 105.958 23.1009 105.752 23.6996C105.546 24.2982 105.443 25.0091 105.443 25.8322C105.443 26.5992 105.527 27.282 105.696 27.8807C105.883 28.4793 106.182 28.947 106.594 29.2837C107.024 29.6017 107.595 29.7608 108.305 29.7608C108.829 29.7608 109.269 29.6672 109.624 29.4801C109.98 29.2931 110.26 29.0312 110.466 28.6944C110.672 28.339 110.803 27.9274 110.859 27.4597H115.854C115.779 28.7693 115.405 29.9198 114.731 30.9113C114.077 31.9027 113.197 32.6791 112.094 33.2403C110.99 33.8015 109.727 34.0822 108.305 34.0822ZM118.443 33.5209V13.0364H123.55V24.7098H122.877C122.877 23.1383 123.073 21.8195 123.466 20.7532C123.859 19.6868 124.43 18.8824 125.178 18.3399C125.945 17.7974 126.89 17.5261 128.012 17.5261H128.237C129.92 17.5261 131.202 18.1341 132.081 19.3501C132.979 20.5661 133.428 22.3526 133.428 24.7098V33.5209H128.321V24.5133C128.321 23.8025 128.106 23.2225 127.675 22.7736C127.245 22.3059 126.675 22.072 125.964 22.072C125.253 22.072 124.673 22.3059 124.224 22.7736C123.775 23.2225 123.55 23.8212 123.55 24.5695V33.5209H118.443ZM155.831 33.5209V13.0364H161.05V33.5209H155.831ZM142.81 33.5209V13.0364H148.03V33.5209H142.81ZM147.132 25.4674V20.9215H156.728V25.4674H147.132ZM170.166 34.026C168.407 34.026 167.041 33.4555 166.069 32.3143C165.115 31.1545 164.638 29.3866 164.638 27.0108V18.0312H169.745V27.1511C169.745 27.8432 169.95 28.4045 170.362 28.8347C170.774 29.265 171.325 29.4801 172.018 29.4801C172.71 29.4801 173.271 29.265 173.701 28.8347C174.132 28.4045 174.347 27.8245 174.347 27.095V18.0312H179.454V33.5209H175.413V27.0108H175.694C175.694 28.6009 175.488 29.9198 175.076 30.9674C174.683 31.9963 174.094 32.7633 173.308 33.2684C172.523 33.7735 171.55 34.026 170.39 34.026H170.166ZM193.215 34.026C191.943 34.026 190.829 33.7641 189.875 33.2403C188.94 32.7165 188.201 31.9495 187.659 30.9393C187.135 29.9291 186.854 28.6944 186.817 27.2353H187.266V33.5209H183.225V13.0364H188.332V23.5873L187.21 24.7098C187.266 23.1945 187.556 21.9037 188.079 20.8373C188.603 19.771 189.324 18.9666 190.24 18.4241C191.176 17.8629 192.251 17.5823 193.467 17.5823C194.515 17.5823 195.46 17.7787 196.301 18.1715C197.143 18.5457 197.854 19.0882 198.434 19.7991C199.033 20.4913 199.491 21.3144 199.809 22.2685C200.127 23.2225 200.286 24.2701 200.286 25.4113V26.0848C200.286 27.2259 200.127 28.2829 199.809 29.2557C199.491 30.2097 199.023 31.0516 198.406 31.7811C197.789 32.492 197.04 33.0439 196.161 33.4368C195.301 33.8296 194.318 34.026 193.215 34.026ZM191.755 29.8169C192.429 29.8169 193.018 29.6485 193.523 29.3118C194.047 28.9563 194.449 28.4699 194.73 27.8526C195.029 27.2353 195.179 26.5337 195.179 25.748C195.179 24.9436 195.029 24.2514 194.73 23.6715C194.449 23.0729 194.056 22.6145 193.551 22.2965C193.046 21.9598 192.448 21.7914 191.755 21.7914C191.138 21.7914 190.558 21.9317 190.016 22.2123C189.492 22.4929 189.062 22.9045 188.725 23.447C188.388 23.9895 188.22 24.6443 188.22 25.4113V26.3654C188.22 27.095 188.397 27.7217 188.753 28.2455C189.108 28.7506 189.557 29.1434 190.1 29.424C190.642 29.6859 191.194 29.8169 191.755 29.8169Z" fill="#030B2A"/>
</svg>
