<svg width="250" height="52" viewBox="0 0 250 52" fill="none" xmlns="http://www.w3.org/2000/svg">
<path d="M5.11413 38.0076V33.7083L17.4573 18.1753L17.6307 18.7994L16.4518 17.2738L17.2493 17.9672H5.59954V12.6971H25.4665V16.9964L13.0887 32.5294L12.9153 31.8706L14.0941 33.4309L13.2967 32.7374H25.3278V38.0076H5.11413ZM37.9733 38.701C36.2859 38.701 34.7835 38.4467 33.466 37.9382C32.1484 37.4297 31.0274 36.7247 30.1028 35.8232C29.2013 34.9218 28.5079 33.8816 28.0225 32.7028C27.5602 31.5239 27.329 30.2642 27.329 28.9235V28.0914C27.329 26.7045 27.5717 25.4101 28.0572 24.2082C28.5657 23.0062 29.2822 21.9545 30.2068 21.053C31.1314 20.1516 32.2524 19.4466 33.57 18.938C34.8875 18.4295 36.3553 18.1753 37.9733 18.1753C39.6144 18.1753 41.0822 18.4295 42.3766 18.938C43.6942 19.4466 44.8152 20.1516 45.7398 21.053C46.6644 21.9545 47.3694 23.0062 47.8548 24.2082C48.3633 25.4101 48.6176 26.7045 48.6176 28.0914V28.9235C48.6176 30.2642 48.3749 31.5239 47.8895 32.7028C47.4272 33.8816 46.7337 34.9218 45.8091 35.8232C44.9077 36.7247 43.7982 37.4297 42.4806 37.9382C41.1631 38.4467 39.6607 38.701 37.9733 38.701ZM37.9733 33.4309C38.9441 33.4309 39.7416 33.2229 40.3657 32.8068C41.0129 32.3907 41.4983 31.8129 41.8219 31.0732C42.1455 30.3104 42.3073 29.4552 42.3073 28.5075C42.3073 27.5136 42.1339 26.6468 41.7872 25.9071C41.4636 25.1443 40.9782 24.5433 40.331 24.1042C39.6838 23.665 38.8979 23.4454 37.9733 23.4454C37.0487 23.4454 36.2628 23.665 35.6156 24.1042C34.9684 24.5433 34.4714 25.1443 34.1247 25.9071C33.8011 26.6468 33.6393 27.5136 33.6393 28.5075C33.6393 29.4552 33.8011 30.3104 34.1247 31.0732C34.4483 31.8129 34.9337 32.3907 35.5809 32.8068C36.2282 33.2229 37.0256 33.4309 37.9733 33.4309ZM61.0523 38.701C59.4343 38.701 58.0012 38.4236 56.753 37.8689C55.5048 37.3141 54.4531 36.5629 53.5979 35.6152C52.7426 34.6675 52.0839 33.6042 51.6216 32.4254C51.1824 31.2466 50.9628 30.033 50.9628 28.7849V28.0914C50.9628 26.797 51.1824 25.5604 51.6216 24.3815C52.0839 23.1796 52.7311 22.1163 53.5632 21.1917C54.4184 20.2671 55.4586 19.539 56.6837 19.0074C57.9087 18.4526 59.2956 18.1753 60.8443 18.1753C62.9015 18.1753 64.6466 18.6376 66.0797 19.5621C67.5128 20.4867 68.6108 21.7118 69.3736 23.2374C70.1363 24.7398 70.5177 26.3809 70.5177 28.1608V30.1717H53.5979V26.7739H66.8772L64.6929 28.2994C64.6929 27.2131 64.5426 26.3 64.2421 25.5604C63.9647 24.7976 63.5371 24.2197 62.9593 23.8268C62.4045 23.4338 61.6995 23.2374 60.8443 23.2374C60.0122 23.2374 59.284 23.4338 58.6599 23.8268C58.059 24.1966 57.5967 24.7745 57.2731 25.5604C56.9495 26.3231 56.7877 27.294 56.7877 28.4728C56.7877 29.5361 56.9379 30.4607 57.2384 31.2466C57.5389 32.0093 58.0012 32.5988 58.6253 33.0148C59.2494 33.4309 60.0584 33.6389 61.0523 33.6389C61.9307 33.6389 62.6472 33.4887 63.202 33.1882C63.7798 32.8877 64.1843 32.4832 64.4155 31.9747H70.171C69.8936 33.2691 69.3389 34.4248 68.5068 35.4419C67.6977 36.4589 66.6576 37.2563 65.3863 37.8342C64.1381 38.4121 62.6934 38.701 61.0523 38.701ZM86.2598 38.0076V17.6205H92.7088V38.0076H86.2598ZM79.3255 18.3139V12.6971H99.6432V18.3139H79.3255ZM109.166 38.701C107.548 38.701 106.115 38.4236 104.867 37.8689C103.619 37.3141 102.567 36.5629 101.712 35.6152C100.857 34.6675 100.198 33.6042 99.7355 32.4254C99.2964 31.2466 99.0768 30.033 99.0768 28.7849V28.0914C99.0768 26.797 99.2964 25.5604 99.7355 24.3815C100.198 23.1796 100.845 22.1163 101.677 21.1917C102.532 20.2671 103.573 19.539 104.798 19.0074C106.023 18.4526 107.41 18.1753 108.958 18.1753C111.015 18.1753 112.761 18.6376 114.194 19.5621C115.627 20.4867 116.725 21.7118 117.488 23.2374C118.25 24.7398 118.632 26.3809 118.632 28.1608V30.1717H101.712V26.7739H114.991L112.807 28.2994C112.807 27.2131 112.657 26.3 112.356 25.5604C112.079 24.7976 111.651 24.2197 111.073 23.8268C110.518 23.4338 109.813 23.2374 108.958 23.2374C108.126 23.2374 107.398 23.4338 106.774 23.8268C106.173 24.1966 105.711 24.7745 105.387 25.5604C105.063 26.3231 104.902 27.294 104.902 28.4728C104.902 29.5361 105.052 30.4607 105.352 31.2466C105.653 32.0093 106.115 32.5988 106.739 33.0148C107.363 33.4309 108.172 33.6389 109.166 33.6389C110.045 33.6389 110.761 33.4887 111.316 33.1882C111.894 32.8877 112.298 32.4832 112.529 31.9747H118.285C118.008 33.2691 117.453 34.4248 116.621 35.4419C115.812 36.4589 114.772 37.2563 113.5 37.8342C112.252 38.4121 110.807 38.701 109.166 38.701ZM130.695 38.701C129.031 38.701 127.586 38.4352 126.361 37.9036C125.136 37.3488 124.107 36.6091 123.275 35.6846C122.466 34.76 121.854 33.7083 121.438 32.5294C121.045 31.3506 120.848 30.1255 120.848 28.8542V28.1608C120.848 26.8201 121.056 25.5488 121.472 24.3469C121.912 23.1449 122.547 22.0816 123.379 21.157C124.211 20.2325 125.24 19.5043 126.465 18.9727C127.69 18.4411 129.1 18.1753 130.695 18.1753C132.452 18.1753 134 18.522 135.341 19.2154C136.682 19.9089 137.745 20.8681 138.531 22.0932C139.34 23.2951 139.791 24.682 139.883 26.2538H133.712C133.642 25.491 133.353 24.8438 132.845 24.3122C132.359 23.7805 131.643 23.5147 130.695 23.5147C129.886 23.5147 129.216 23.7228 128.684 24.1388C128.176 24.5549 127.794 25.1327 127.54 25.8724C127.286 26.6121 127.159 27.4904 127.159 28.5075C127.159 29.4552 127.263 30.2989 127.471 31.0385C127.702 31.7782 128.072 32.3561 128.58 32.7721C129.112 33.1651 129.817 33.3615 130.695 33.3615C131.342 33.3615 131.885 33.246 132.325 33.0148C132.764 32.7837 133.111 32.4601 133.365 32.044C133.619 31.6048 133.781 31.0963 133.85 30.5184H140.022C139.929 32.1365 139.467 33.558 138.635 34.7831C137.826 36.0082 136.74 36.9674 135.376 37.6608C134.012 38.3543 132.452 38.701 130.695 38.701ZM143.221 38.0076V12.6971H149.532V27.1206H148.7C148.7 25.179 148.942 23.5494 149.428 22.2319C149.913 20.9143 150.618 19.9204 151.543 19.2501C152.49 18.5798 153.658 18.2446 155.044 18.2446H155.322C157.402 18.2446 158.986 18.9958 160.072 20.4983C161.181 22.0007 161.736 24.2082 161.736 27.1206V38.0076H155.426V26.8779C155.426 25.9995 155.16 25.283 154.628 24.7282C154.097 24.1504 153.392 23.8614 152.513 23.8614C151.635 23.8614 150.919 24.1504 150.364 24.7282C149.809 25.283 149.532 26.0227 149.532 26.9472V38.0076H143.221ZM189.416 38.0076V12.6971H195.865V38.0076H189.416ZM173.329 38.0076V12.6971H179.778V38.0076H173.329ZM178.668 28.0567V22.4399H190.526V28.0567H178.668ZM207.129 38.6317C204.956 38.6317 203.269 37.9267 202.067 36.5167C200.888 35.0836 200.298 32.8992 200.298 29.9637V18.8687H206.609V30.1371C206.609 30.9923 206.863 31.6857 207.371 32.2174C207.88 32.749 208.562 33.0148 209.417 33.0148C210.272 33.0148 210.966 32.749 211.497 32.2174C212.029 31.6857 212.295 30.9692 212.295 30.0677V18.8687H218.605V38.0076H213.612V29.9637H213.959C213.959 31.9284 213.705 33.558 213.196 34.8524C212.711 36.1237 211.983 37.0714 211.012 37.6955C210.041 38.3196 208.839 38.6317 207.406 38.6317H207.129ZM235.608 38.6317C234.036 38.6317 232.661 38.3081 231.482 37.6608C230.326 37.0136 229.413 36.0659 228.743 34.8178C228.096 33.5696 227.749 32.044 227.703 30.2411H228.257V38.0076H223.265V12.6971H229.575V25.7337L228.188 27.1206C228.257 25.2483 228.616 23.6534 229.263 22.3359C229.91 21.0184 230.8 20.0244 231.933 19.3541C233.088 18.6607 234.417 18.3139 235.92 18.3139C237.214 18.3139 238.382 18.5567 239.422 19.0421C240.462 19.5043 241.34 20.1747 242.057 21.053C242.796 21.9083 243.363 22.9253 243.756 24.1042C244.149 25.283 244.345 26.5774 244.345 27.9874V28.8195C244.345 30.2295 244.149 31.5355 243.756 32.7374C243.363 33.9163 242.785 34.9564 242.022 35.8579C241.259 36.7363 240.335 37.4181 239.248 37.9036C238.185 38.389 236.972 38.6317 235.608 38.6317ZM233.805 33.4309C234.637 33.4309 235.365 33.2229 235.989 32.8068C236.636 32.3676 237.133 31.7666 237.48 31.0039C237.85 30.2411 238.035 29.3743 238.035 28.4035C238.035 27.4095 237.85 26.5543 237.48 25.8377C237.133 25.0981 236.648 24.5318 236.024 24.1388C235.4 23.7228 234.66 23.5147 233.805 23.5147C233.042 23.5147 232.326 23.6881 231.655 24.0348C231.008 24.3815 230.476 24.89 230.06 25.5604C229.644 26.2307 229.436 27.0397 229.436 27.9874V29.1662C229.436 30.0677 229.656 30.842 230.095 31.4893C230.534 32.1134 231.089 32.5988 231.759 32.9455C232.43 33.2691 233.111 33.4309 233.805 33.4309Z" fill="#030B2A"/>
</svg>
