<svg width="332" height="39" viewBox="0 0 332 39" fill="none" xmlns="http://www.w3.org/2000/svg">
<path d="M26.6894 38.1875H0.193298V33.2925L17.2648 8.81775H0.656006V2.58337H26.2267V7.45398L9.17957 31.9531H26.6894V38.1875ZM56.5219 24.5255C56.5219 26.7984 56.2134 28.8116 55.5964 30.565C54.9957 32.3184 54.1109 33.804 52.942 35.0216C51.7892 36.223 50.393 37.1322 48.7532 37.7491C47.1297 38.3661 45.2951 38.6746 43.2495 38.6746C41.3337 38.6746 39.5721 38.3661 37.9648 37.7491C36.3738 37.1322 34.9857 36.223 33.8005 35.0216C32.6315 33.804 31.7224 32.3184 31.0729 30.565C30.4398 28.8116 30.1232 26.7984 30.1232 24.5255C30.1232 21.5057 30.6589 18.9486 31.7305 16.8542C32.802 14.7599 34.3281 13.1688 36.3088 12.0811C38.2896 10.9933 40.6518 10.4494 43.3956 10.4494C45.9445 10.4494 48.2012 10.9933 50.1657 12.0811C52.1464 13.1688 53.6969 14.7599 54.8171 16.8542C55.9536 18.9486 56.5219 21.5057 56.5219 24.5255ZM37.697 24.5255C37.697 26.3113 37.8918 27.8131 38.2814 29.0308C38.6711 30.2484 39.2799 31.1657 40.1079 31.7827C40.9359 32.3996 42.0156 32.7081 43.3469 32.7081C44.6619 32.7081 45.7253 32.3996 46.5371 31.7827C47.3651 31.1657 47.9658 30.2484 48.3392 29.0308C48.7289 27.8131 48.9237 26.3113 48.9237 24.5255C48.9237 22.7233 48.7289 21.2297 48.3392 20.0445C47.9658 18.8431 47.3651 17.942 46.5371 17.3413C45.7091 16.7406 44.6295 16.4402 43.2982 16.4402C41.3337 16.4402 39.905 17.114 39.012 18.4615C38.1353 19.8091 37.697 21.8304 37.697 24.5255ZM73.8856 10.4494C76.402 10.4494 78.5695 10.9365 80.3878 11.9106C82.2062 12.8685 83.6105 14.2647 84.6009 16.0993C85.5912 17.9339 86.0864 20.1744 86.0864 22.8207V26.425H68.5279C68.6091 28.5193 69.2341 30.1672 70.4031 31.3687C71.5883 32.5538 73.228 33.1464 75.3224 33.1464C77.0596 33.1464 78.6506 32.9678 80.0956 32.6107C81.5405 32.2535 83.0261 31.7177 84.5522 31.0034V36.7507C83.2047 37.4163 81.7922 37.9034 80.3148 38.2119C78.8536 38.5203 77.0758 38.6746 74.9814 38.6746C72.2539 38.6746 69.8348 38.1713 67.7242 37.1647C65.6299 36.1581 63.982 34.6238 62.7806 32.562C61.5954 30.5001 61.0028 27.9024 61.0028 24.769C61.0028 21.5869 61.5386 18.9405 62.6101 16.8299C63.6979 14.7031 65.2078 13.112 67.1398 12.0567C69.0718 10.9852 71.3204 10.4494 73.8856 10.4494ZM73.9343 15.734C72.4893 15.734 71.2879 16.1967 70.33 17.1221C69.3884 18.0475 68.8445 19.5006 68.6984 21.4813H79.1215C79.1052 20.3773 78.9023 19.3951 78.5126 18.5346C78.1392 17.6741 77.571 16.9922 76.8079 16.489C76.0611 15.9857 75.1032 15.734 73.9343 15.734ZM119.401 38.1875H111.852V8.86646H102.184V2.58337H129.07V8.86646H119.401V38.1875ZM145.191 10.4494C147.708 10.4494 149.875 10.9365 151.693 11.9106C153.512 12.8685 154.916 14.2647 155.907 16.0993C156.897 17.9339 157.392 20.1744 157.392 22.8207V26.425H139.834C139.915 28.5193 140.54 30.1672 141.709 31.3687C142.894 32.5538 144.534 33.1464 146.628 33.1464C148.365 33.1464 149.956 32.9678 151.401 32.6107C152.846 32.2535 154.332 31.7177 155.858 31.0034V36.7507C154.51 37.4163 153.098 37.9034 151.62 38.2119C150.159 38.5203 148.381 38.6746 146.287 38.6746C143.56 38.6746 141.141 38.1713 139.03 37.1647C136.936 36.1581 135.288 34.6238 134.086 32.562C132.901 30.5001 132.308 27.9024 132.308 24.769C132.308 21.5869 132.844 18.9405 133.916 16.8299C135.004 14.7031 136.513 13.112 138.445 12.0567C140.377 10.9852 142.626 10.4494 145.191 10.4494ZM145.24 15.734C143.795 15.734 142.594 16.1967 141.636 17.1221C140.694 18.0475 140.15 19.5006 140.004 21.4813H150.427C150.411 20.3773 150.208 19.3951 149.818 18.5346C149.445 17.6741 148.877 16.9922 148.114 16.489C147.367 15.9857 146.409 15.734 145.24 15.734ZM174.488 38.6746C171.793 38.6746 169.496 38.1875 167.596 37.2134C165.696 36.223 164.252 34.6969 163.261 32.635C162.271 30.5731 161.776 27.9349 161.776 24.7203C161.776 21.392 162.336 18.6807 163.456 16.5864C164.592 14.4758 166.159 12.9253 168.156 11.9349C170.169 10.9446 172.499 10.4494 175.145 10.4494C177.029 10.4494 178.652 10.6361 180.016 11.0095C181.396 11.3667 182.597 11.7969 183.62 12.3002L181.429 18.0475C180.26 17.5767 179.172 17.1952 178.165 16.903C177.159 16.5945 176.152 16.4402 175.145 16.4402C173.847 16.4402 172.767 16.7487 171.906 17.3657C171.046 17.9664 170.405 18.8755 169.983 20.0932C169.56 21.3109 169.349 22.837 169.349 24.6716C169.349 26.4737 169.577 27.9673 170.031 29.1525C170.486 30.3377 171.143 31.2225 172.004 31.807C172.864 32.3752 173.912 32.6594 175.145 32.6594C176.688 32.6594 178.06 32.4564 179.261 32.0505C180.463 31.6284 181.631 31.0439 182.768 30.2971V36.6533C181.631 37.3676 180.438 37.879 179.188 38.1875C177.954 38.5122 176.387 38.6746 174.488 38.6746ZM196.527 0.294189V8.0141C196.527 9.36163 196.479 10.6442 196.381 11.8619C196.3 13.0795 196.235 13.94 196.186 14.4433H196.576C197.161 13.5016 197.851 12.7386 198.646 12.1541C199.458 11.5696 200.351 11.1394 201.325 10.8634C202.299 10.5874 203.346 10.4494 204.466 10.4494C206.431 10.4494 208.144 10.7985 209.605 11.4966C211.066 12.1785 212.203 13.2581 213.014 14.7355C213.826 16.1967 214.232 18.0963 214.232 20.4341V38.1875H206.804V22.285C206.804 20.3367 206.447 18.8674 205.733 17.8771C205.018 16.8867 203.914 16.3915 202.421 16.3915C200.927 16.3915 199.75 16.7406 198.89 17.4387C198.029 18.1206 197.42 19.1353 197.063 20.4828C196.706 21.8141 196.527 23.4458 196.527 25.3778V38.1875H189.1V0.294189H196.527ZM264.594 38.1875H257.069V22.8207H242.969V38.1875H235.419V2.58337H242.969V16.5377H257.069V2.58337H264.594V38.1875ZM298.006 10.9608V38.1875H292.308L291.309 34.705H290.92C290.335 35.6304 289.605 36.3854 288.728 36.9698C287.851 37.5543 286.885 37.9846 285.83 38.2606C284.775 38.5366 283.679 38.6746 282.542 38.6746C280.594 38.6746 278.897 38.3336 277.453 37.6517C276.008 36.9536 274.879 35.874 274.067 34.4128C273.272 32.9516 272.874 31.0521 272.874 28.7142V10.9608H280.302V26.8633C280.302 28.8116 280.651 30.2809 281.349 31.2712C282.047 32.2616 283.159 32.7568 284.685 32.7568C286.195 32.7568 287.38 32.4158 288.241 31.7339C289.101 31.0358 289.702 30.0211 290.043 28.6898C290.4 27.3423 290.579 25.7025 290.579 23.7705V10.9608H298.006ZM313.227 0.294189V9.10999C313.227 10.1328 313.195 11.1475 313.13 12.1541C313.081 13.1607 313.016 13.94 312.935 14.492H313.227C313.941 13.3718 314.916 12.422 316.149 11.6427C317.383 10.8472 318.983 10.4494 320.947 10.4494C323.999 10.4494 326.475 11.6427 328.375 14.0293C330.274 16.4159 331.224 19.9146 331.224 24.5255C331.224 27.6264 330.786 30.2322 329.909 32.3428C329.032 34.4371 327.806 36.0201 326.232 37.0916C324.657 38.1469 322.83 38.6746 320.752 38.6746C318.755 38.6746 317.18 38.3174 316.028 37.603C314.875 36.8887 313.941 36.085 313.227 35.1921H312.716L311.474 38.1875H305.799V0.294189H313.227ZM318.56 16.3915C317.262 16.3915 316.231 16.6594 315.468 17.1952C314.705 17.731 314.144 18.5346 313.787 19.6061C313.446 20.6777 313.26 22.0333 313.227 23.6731V24.4767C313.227 27.1231 313.617 29.1525 314.396 30.565C315.175 31.9612 316.596 32.6594 318.658 32.6594C320.184 32.6594 321.393 31.9531 322.286 30.5406C323.196 29.1282 323.65 27.0906 323.65 24.428C323.65 21.7654 323.196 19.7604 322.286 18.4128C321.377 17.0653 320.135 16.3915 318.56 16.3915Z" fill="white"/>
</svg>
